<?xml version="1.0" encoding="UTF-8"?><svg xmlns="http://www.w3.org/2000/svg" viewBox="0 0 540 756"><defs><style>.cls-1{stroke:#c7b299;stroke-miterlimit:10;stroke-width:4px;}.cls-1,.cls-2{fill:#fff;}.cls-3{opacity:.3;}.cls-4{mix-blend-mode:soft-light;}.cls-5{fill:#f7de4d;}.cls-6{fill:#c9b031;}.cls-7{isolation:isolate;}.cls-8{fill:#fbe24e;}.cls-9{fill:#f1d94b;}.cls-10{fill:#fd4f4f;}.cls-11{fill:#9e308d;}.cls-12{fill:#0c0907;}.cls-13{fill:#353535;}.cls-14{fill:#625bbf;}.cls-15{fill:#393d5e;}.cls-16{fill:#12110c;}.cls-17{fill:#f7f7f7;}.cls-18{fill:#26220d;}</style></defs><g class="cls-7"><g id="Background"><rect class="cls-17" x=".15" y=".15" width="539.08" height="757.15"/><rect class="cls-13" x=".15" y=".15" width="539.69" height="573.86"/><path class="cls-1" d="M.15.15v757.14h539.08V.15H.15ZM504.23,722.29H35.15V35.15h469.08v687.14Z"/><circle class="cls-14" cx="108.27" cy="575.71" r="45.86"/><g class="cls-4"><path class="cls-2" d="M107.66,565.07c.96,0,1.46-.32,1.6-.49-.19-.18-.95-.59-2.81-.59-.45,0-.92.03-1.39.09.34.55,1.06.99,2.6.99Z"/><path class="cls-2" d="M98.82,584.43c2.88-1.06,5.61-3.44,7.79-6.88,1.02-1.8,1.63-3.49,1.74-4.81-3.84,2.87-7.41,6.9-9.53,11.7Z"/><path class="cls-2" d="M107.37,570.37c-.28-.12-.62-.18-1.02-.18-2.51,0-4.48,1.71-5.69,3.14-2.02,2.39-3.21,5.58-3.2,7.32,2.55-4.25,6.14-7.75,9.91-10.29Z"/><path class="cls-2" d="M97.5,564.22c.45-1.31.68-2.48.68-3.5,0-.86-.17-2.02-.98-2.64-.42-.31-.64-.75-.64-1.29,0-.83.63-1.45,1.45-1.45.38,0,.74.13,1.11.4,1.21.85,1.86,2.33,1.86,4.28,0,.85-.12,1.78-.36,2.76.29-.11.58-.2.87-.29-.02-.22-.03-.45-.03-.7,0-.99.21-2.06.62-3.17.22-.6.47-1.14.76-1.67-.14-.13-.28-.25-.41-.38-1.41-1.32-2.63-2.46-6.38-2.46-9.74,0-18.09,9.25-18.09,16.83,0,3.64,1.87,5.26,6.07,5.26,1.53,0,2.63-.35,4.09-1.04.17-.47.39-.98.66-1.56,1.9-3.91,4.99-7.21,8.73-9.36Z"/><path class="cls-2" d="M116.1,554.38c.12-.38.2-.73.2-.94,0-.84-.68-1.27-2.03-1.27-1.81,0-5.27,1.48-7.49,4.63.99.52,2.31.94,4.31.94,2.84-.14,4.59-2.13,5.01-3.36Z"/><path class="cls-2" d="M125.59,577.3c.55-1.47.48-2.17.36-2.34-.02-.03-.11-.05-.23-.05-1.51,0-5.62,3.66-7.8,9.64-.53,1.5-.71,2.87-.53,3.84,3.85-3.4,6.94-7.56,8.19-11.08v-.02Z"/><path class="cls-2" d="M130.01,568.55c-5.78,0-15.3,9.21-19.59,18.94-1.05,2.44-1.72,4.71-1.95,6.66,2.25-.92,4.58-2.3,6.87-4.06-.77-1.56-.71-3.75.19-6.18,2.23-6.23,6.89-11.31,10.38-11.31,1.18,0,1.81.55,2.13,1.02.67.97.64,2.44-.08,4.38-1.4,3.86-4.69,8.29-8.93,12.04.16.02.33.04.52.04,2.85-.08,8.5-4.26,12.05-13.3,1.33-3.4,1.62-6.06.78-7.29-.43-.63-1.21-.94-2.37-.94Z"/><path class="cls-2" d="M108.27,538.79c-20.39,0-36.92,16.53-36.92,36.92s16.53,36.92,36.92,36.92,36.92-16.53,36.92-36.92-16.53-36.92-36.92-36.92ZM119.43,592.39h0c-.99,0-1.82-.2-2.52-.6-2.77,2.16-5.65,3.83-8.43,4.88.31,3.08,2.18,4.83,5.22,4.83,5.69,0,12.19-4.62,14.69-8.94.31-.52.81-.8,1.37-.8h.56l.36.5c.33.54.07,1.06-.12,1.45-2.81,4.93-10.11,10.2-17.06,10.2-4.24,0-7.28-2.4-8.18-6.33-1.15.25-2.3.37-3.44.37-3.61,0-5.43-1.56-6.33-2.86-1.28-1.87-1.59-4.62-.93-7.64-4.52-.24-7.42-3.18-7.42-7.64,0-.62.06-1.26.17-1.94-1,.35-2.14.61-3.46.61-5.64,0-8.88-2.92-8.88-8.02,0-8.41,9.74-18.67,21.1-18.67,4.31,0,6.35,1.67,8.13,3.16,2.84-3.34,7.11-5.08,10.1-5.08,3.68,0,4.99,1.87,4.99,3.63,0,.56-.08,1.02-.27,1.51-.6,1.68-3.06,4.93-8.07,5.09h0c-2.13,0-3.87-.38-5.4-1.18-.06.13-.11.27-.17.4-.35.93-.57,1.76-.66,2.46.62-.07,1.2-.1,1.75-.1,3.79,0,5.14,1.48,5.14,2.87s-1.42,2.82-4.13,2.82c-2.44,0-4.32-.94-5.32-2.6-.92.33-1.85.76-2.78,1.29-1.69,3.83-4.63,7.42-7.95,9.7-.61,1.62-.93,3.17-.93,4.5,0,3.06,1.69,4.76,4.75,4.8.02-.06.04-.12.06-.19.26-.69.56-1.36.88-2.02-.09.02-.19.03-.29.03-.63,0-1.16-.43-1.32-1.06-.06-.23-.13-.57-.13-.95,0-3.87,5.03-12.97,11.91-12.97,1.33,0,2.43.37,3.28,1.03,2.08-1.18,4.16-2.07,6.07-2.63.6-.17,1.08-.09,1.41.23l.42.41-.14.64c-.13.47-.56.86-1.11.99-1.66.47-3.44,1.26-5.22,2.3.22.61.34,1.3.34,2.06,0,1.86-.7,4.02-1.97,6.08-2.91,4.4-7.25,7.37-11.73,8.21-.86,2.93-.82,5.27.14,6.66.77,1.1,2.18,1.66,4.21,1.66.93,0,1.9-.11,2.95-.34-.04-2.48.63-5.33,1.99-8.5,4.32-9.88,14.62-20.45,23.09-20.45,2.23,0,3.86.72,4.83,2.14,1.72,2.51.81,6.34-.26,9.12-3.58,9.18-10.59,14.77-15.3,14.88Z"/></g></g><g id="Text-outline"><path d="M151.68,610.15c1.28-3.61,1.98-7.11,2.26-10.48.67-.17,1.24-.3,1.76-.32,1.58-.07,2.15.72,2.19,1.73.14,3.02-3.02,9.65-4.65,9.73-.77.04-1.21-.19-1.57-.65ZM158.49,609.83c1.28-3.61,1.98-7.11,2.26-10.48.67-.17,1.24-.3,1.76-.32,1.58-.07,2.15.72,2.19,1.73.14,3.02-3.02,9.65-4.65,9.73-.77.04-1.21-.19-1.57-.65Z"/><path d="M168.39,599.53c4.41-.25,11.97-1.03,14.56-1.15,1.82-.08,3.72.45,3.66,4.3-1.49.07-3.64.31-5.88.61l-8.41,24.22,2.83-.18c2.49-.11,3.87.5,3.48,4.69-3.45.16-11.58,1.11-15.27,1.28-2.01.09-3.14-1.49-2.81-4.82l5.31-.44,8.65-24.04-2.78.22c-2.83.13-3.91-1.46-3.34-4.7Z"/><path d="M180.52,629.3c-.14-3.07,5.06-14.36,6.29-20.04,2.75.21,4.42.95,4.5,2.77.06,1.34-1.01,4.08-2.5,8.43,3.13-6.15,7.63-11.83,11.56-12.01,2.01-.09,3.33,1.29,3.41,3.21.16,3.5-4.59,11.07-4.46,13.8.02.38.22.52.55.5,1.49-.07,2.99-1.96,4.21-4.57,1.2-.05,1.75.45,1.79,1.26.13,2.78-4.84,8.68-9.2,8.88-2.25.1-3.54-1.76-3.63-3.68-.15-3.17,4.44-11.21,4.37-12.55-.02-.38-.22-.57-.55-.55-1.53.07-4.37,2.17-7.95,9.01-1.31,2.8-2.31,6.16-2.53,8.72-3.98.18-5.76-.89-5.86-3.19Z"/><path d="M216.91,625.56c-.31-6.86,5.47-18.13,11.99-18.43,1.39-.06,2.81.59,4,2.32.3-.88.55-1.66.66-2.38,2.83-.13,4.42,1,4.49,2.53.09,1.87-3.94,11.62-3.82,14.16.03.58.23.81.66.79,1.34-.06,2.86-1.57,4.1-4.85,1.25-.06,1.85.49,1.89,1.4.13,2.78-4.54,8.86-9.43,9.08-2.4.11-3.44-2.68-2.91-5.82h-.1c-2.89,5.13-5.75,6.56-7.67,6.65-2.3.11-3.69-1.85-3.85-5.45ZM231.96,612.09c-.72-.98-1.51-1.47-2.32-1.43-3.45.16-6.94,9.06-6.76,13.05.05,1.01.31,1.62,1.03,1.59,2.3-.11,5.71-4.49,8.05-13.2Z"/><path d="M254.53,626.53c-1.73,3.2-2.65,4.01-3.75,4.06-.96.04-1.66-.55-1.95-1.59,1.28-1.41,2.88-4.27,4.51-7.46.07-.63.24-.97.57-1.18,1.98-3.93,3.9-8.16,5.46-10.92.68-2.96,2.56-5.02,4.81-5.12,1.58-.07,2.77.59,3.21,1.87-1.36.64-2.53,2.38-2.53,4.58.02,2.64,1.42,5.89,1.91,9.09,1.92-1.05,3.48-2.61,4.45-4.67l.62-1.23c1.1-.05,2.05.63,2.08,1.44l-.56,1.37c-1.49,3.24-3.85,5.08-6.5,6.06-.51,3.63-3.7,6.32-6.96,6.47-2.54.12-4.32-1-5.37-2.78ZM258.61,626.34c1.29-.06,2.16-1.01,2.34-2.46-2.36-.04-4.02-.68-4.65-.89l-.35.79c.21,1.43,1.23,2.63,2.67,2.57ZM260.73,621.2c-.31-1.43-.82-3.18-1.2-5.13l-2.19,4.71c1.02.19,2.13.38,3.38.42Z"/><path d="M269.86,621.26c-.27-5.8,5.31-16.25,11.59-16.53,2.54-.12,5.4,1.48,5.54,4.46.2,4.46-3.74,9.54-8.4,9.75-1.25.06-2.22-.14-3-.53-.12.63-.13,1.25-.11,1.83.12,2.54,1.45,3.39,3.66,3.29,3.36-.15,7.86-3.48,10.44-9.22l.57-1.18c1.25-.06,2.09.62,2.13,1.44l-.61,1.37c-3.09,6.96-8.23,12.25-14.61,12.54-4.17.19-6.96-2.04-7.2-7.21ZM277.4,615.97c3.45-.16,5.34-5.15,5.24-7.21-.03-.58-.28-.76-.66-.74-1.77.08-4.49,3.76-5.8,7.71.39.17.83.25,1.21.23Z"/><path d="M287.83,622.31c-.31-6.86,5.46-18.13,11.99-18.43,1.39-.06,2.81.59,4,2.32.3-.88.55-1.66.66-2.38,2.83-.13,4.42,1,4.49,2.53.09,1.87-3.94,11.62-3.82,14.16.03.58.23.81.66.79,1.34-.06,2.86-1.57,4.1-4.85,1.25-.06,1.85.49,1.89,1.4.13,2.78-4.54,8.86-9.44,9.08-2.4.11-3.44-2.68-2.91-5.82h-.1c-2.89,5.13-5.75,6.56-7.67,6.65-2.3.11-3.69-1.85-3.85-5.45ZM302.88,608.84c-.72-.98-1.51-1.47-2.32-1.43-3.45.16-6.94,9.06-6.75,13.05.05,1.01.31,1.62,1.03,1.59,2.3-.11,5.7-4.49,8.04-13.2Z"/><path d="M323.32,619.78c-.29-6.43,4.53-15.54,9.18-15.75,1.15-.05,2.28.38,2.82,1.7.87-2.06,2.24-3.51,3.82-3.59,1.73-.08,2.94,1.31,3.07,3.99.13,2.73-.72,6.28-2.25,9.57l.34.03c2.06-.09,3.42-1.84,4.38-3.95l.57-1.18c1.06-.05,2.04.44,2.09,1.49l-.56,1.32c-1.31,2.85-3.63,5.64-6.99,5.8-.58.03-1.16-.04-1.64-.16-2.42,3.86-5.74,6.85-9.34,7.01-3.16.15-5.3-2.3-5.48-6.28ZM331.08,620.43c1.58-.07,3.09-1.68,4.24-3.85-.73-1.36-1.06-3.12-1.13-4.71-.08-1.73.18-3.47.64-4.98-3.24,1.69-5.59,7.03-5.4,11.06.08,1.68.55,2.52,1.65,2.47Z"/><path d="M340.68,631.62c-.35-7.62,6.16-28.2,10.04-35.83,3-5.86,5.72-8.29,8.22-8.4,2.06-.09,3.22,2.21,3.36,5.08.25,5.47-4.3,16.25-10.73,21.64.89.49,1.95.68,3.01.63,1.68-.08,3.04-.67,4.48-1.79.48.07,1.03.48,1.07,1.39.09,1.97-3.06,3.41-5.56,3.52-1.15.05-2.27-.14-3.3-.62,1.3,2.15,1.99,4.57,2.01,7.12.15,6.38-3.56,12.42-7.59,12.6-3.31.15-4.86-2.23-5-5.34ZM349.62,624.34c-.05-2.16-.34-4.21-1.16-6.39-1.6,4.88-2.61,11.17-2.51,13.47.04.91.12,1.58.7,1.55,1.29-.06,3.08-4.13,2.97-8.64ZM359.67,593.07c-.04-.77-.24-1.05-.62-1.03-1.87.09-5.13,7.68-9.05,20.6,4.77-5.02,9.87-15.3,9.68-19.57Z"/><path d="M370.08,618.93c-.16-3.55,2.18-10.1,4.4-16.25l-1.53.07c-1.77.08-2.65-1.23-2.88-3.09l5.61-.26c1.28-3.52,2.34-6.64,2.68-8.72,2.83-.03,5.28.82,5.34,2.26.03.72-.82,3.11-1.93,6.19l1.63-.07c2.3-.11,2.63.84,3.22,3.07l-6.04.28c-2.1,5.67-4.43,12.31-4.3,15.14.02.53.28.8.85.78,1.92-.09,5.74-2.76,8.26-8.4l.57-1.18c1.25-.06,2.04.53,2.08,1.44l-.56,1.37c-2.92,6.52-8.86,12.13-13.13,12.33-2.21.1-4.11-1.64-4.26-4.95Z"/><path d="M384.07,616.99c-.29-6.43,4.53-15.54,9.18-15.75,1.15-.05,2.28.38,2.82,1.7.87-2.06,2.24-3.51,3.82-3.59,1.73-.08,2.94,1.31,3.07,3.99.13,2.73-.72,6.28-2.25,9.57l.34.03c2.06-.09,3.42-1.84,4.38-3.95l.57-1.18c1.06-.05,2.04.44,2.09,1.49l-.56,1.32c-1.31,2.85-3.63,5.64-6.99,5.8-.58.03-1.16-.04-1.64-.16-2.42,3.86-5.74,6.85-9.34,7.01-3.16.15-5.3-2.3-5.48-6.28ZM391.84,617.65c1.58-.07,3.09-1.68,4.24-3.85-.73-1.36-1.06-3.12-1.13-4.71-.08-1.73.18-3.47.64-4.98-3.24,1.69-5.59,7.03-5.4,11.06.08,1.68.55,2.52,1.65,2.47Z"/><path d="M403.55,618.6c-.18-3.88,7.54-33.7,15.74-34.07,1.73-.08,2.84,1.17,2.96,3.71.16,3.5-.86,7.54-7.42,15.38,2.14-2.5,5.19-5.19,7.4-5.29,2.01-.09,3.33,1.34,3.42,3.25.16,3.6-4.12,9.7-9.25,12.15.72,1.99,1.63,3,2.78,2.95,1.49-.07,5.83-2.81,8.44-8.7l.57-1.18c1.29-.06,2.09.63,2.13,1.44l-.61,1.37c-3.05,6.87-7.52,12.07-12.75,12.31-2.54.12-5.13-2.99-6.01-7.37-.34-.18-.6-.45-.81-.83-.57,3.39-1.1,6.39-1.47,8.86-3.76-.16-5.02-1.64-5.13-3.99ZM419.78,603.54c-.02-.38-.17-.57-.46-.56-1.97.09-6.23,3.51-8.39,7.83.42.7,1.1.86,1.58.84,4.03-.18,7.37-5.96,7.27-8.12ZM419.23,590.44c-.03-.58-.18-.81-.47-.8-.77.04-2.62,1.46-7.14,16.14,5.37-6.54,7.73-12.75,7.61-15.34Z"/><path d="M426.22,614.1c-.27-5.8,5.31-16.25,11.59-16.53,2.54-.12,5.4,1.48,5.54,4.46.2,4.46-3.74,9.54-8.4,9.75-1.25.06-2.22-.14-3-.53-.12.63-.13,1.25-.11,1.83.12,2.54,1.45,3.39,3.66,3.29,3.36-.15,7.87-3.48,10.44-9.22l.57-1.18c1.25-.06,2.1.62,2.13,1.44l-.61,1.37c-3.09,6.96-8.23,12.25-14.61,12.54-4.17.19-6.96-2.04-7.2-7.21ZM433.76,608.81c3.45-.16,5.34-5.15,5.24-7.21-.03-.58-.28-.76-.66-.74-1.77.08-4.49,3.76-5.8,7.71.39.17.83.25,1.21.23Z"/><path d="M442.99,617.27c-.14-3.07,5.11-14.36,6.34-20.09,2.6.12,4.38,1.15,4.45,2.78.06,1.39-1.01,4.13-2.5,8.48,3.08-6.15,7.58-11.83,11.51-12.01,2.01-.09,3.33,1.29,3.41,3.21.16,3.5-4.54,11.07-4.41,13.8.02.38.22.52.5.51,1.53-.07,4.58-2.9,6.8-7.86l.57-1.18c1.49-.07,2.1.72,2.13,1.44l-.61,1.37c-2.31,5.15-6.92,11.56-12.05,11.8-2.25.1-3.55-2-3.63-3.68-.15-3.17,4.39-11.21,4.33-12.55-.02-.38-.22-.57-.55-.55-1.53.07-4.32,2.17-7.9,9.01-1.31,2.8-2.31,6.16-2.53,8.72-3.98.18-5.76-.89-5.86-3.19Z"/><path d="M466.79,612.34c0-1.01.36-1.51,1.03-1.54.86-.04,2.76.45,5.65.56-.4-1.47-1.02-3.46-1.45-5.51l-.22.49-.61,1.42c-1.1.05-2-.68-2.05-1.69l.52-1.18,1.88-4.07c.28-3.28,2.23-5.96,5.15-6.1,1.77-.08,2.91.68,3.4,1.86-1.72.22-2.87,2.29-2.79,4.12.12,2.68,1.64,6.36,2,10,1.33-.45,2.4-1.12,3.28-1.93.58.02,1.08.57,1.11,1.25.06,1.29-1.79,2.87-4.5,3.62-.81,3.3-3.72,5.79-6.46,5.92-4.22.19-6-2.99-5.95-7.22ZM471.4,616.45c1.15-.05,2.18-.68,2.39-2.27-2.5-.13-4.21-.63-4.59-.61-.05,0-.14.1-.13.25-.08,1.35.89,2.7,2.33,2.63Z"/><path d="M481.6,621.08c2.41.08,4.55-1.31,5.16-3.74-1.4-.03-2.37-1.33-2.42-2.48-.1-2.11,1.6-3.82,3.76-3.92,1.87-.09,3.27,1.2,3.36,3.11.16,3.5-2.81,9.02-7.41,9.23-1.77.08-2.59-.89-2.46-2.19Z"/><path d="M145.41,687.4c-.07-1.63.53-2.04,2.16-2.21,4.39-.63,7.87-1.37,10.75-2.37.67-2.05,1.29-4.29,1.91-6.48l-.15-.09c-3.03,4.13-5.73,6.08-8.41,6.2-2.21.1-3.76-1.36-3.9-4.29-.2-4.32,4.71-13.53,5.5-17.41,3.61.08,4.71,1.03,4.77,2.38.08,1.82-4.05,10.28-3.91,13.25.02.53.28.9.86.87,2.54-.12,7.19-5.66,9.89-16.89,2.79.02,4.41.81,4.48,2.29.08,1.73-2.87,10.7-4.99,16.86,2.78-2.24,4.85-5.32,6.91-9.74l.57-1.18c1.15-.05,2.04.53,2.09,1.49l-.56,1.32c-2.53,5.59-5.51,9.72-10.53,12.5-2.44,6.5-6.19,11.77-11.08,11.99-3.5.16-6.12-3.47-6.35-8.5ZM151.79,691.38c2.25-.1,3.89-2.15,5.2-5.04-2.13.62-4.56,1.12-7.33,1.49-.34.02-.43.07-.41.4.07,1.49.92,3.22,2.55,3.15Z"/><path d="M169.96,676.85c-.29-6.43,4.53-15.54,9.18-15.75,1.15-.05,2.28.38,2.82,1.7.87-2.06,2.24-3.52,3.82-3.59,1.73-.08,2.94,1.31,3.07,3.99.12,2.73-.72,6.28-2.25,9.57l.34.03c2.06-.09,3.42-1.84,4.38-3.95l.57-1.18c1.06-.05,2.04.44,2.09,1.49l-.56,1.32c-1.31,2.85-3.63,5.64-6.99,5.8-.58.03-1.16-.04-1.64-.17-2.42,3.86-5.74,6.85-9.34,7.01-3.17.15-5.3-2.3-5.48-6.28ZM177.73,677.51c1.58-.07,3.09-1.68,4.24-3.85-.73-1.36-1.06-3.12-1.13-4.71-.08-1.73.18-3.47.64-4.98-3.24,1.69-5.59,7.03-5.4,11.06.08,1.68.55,2.52,1.65,2.47Z"/><path d="M189.14,678.09c-.23-5.04,5.08-15.95,5.52-19.04,3.4-.16,4.84.83,4.9,2.08.08,1.73-4.26,11.82-4.11,15.13.02.33.17.62.56.6,2.78-.13,7.71-5.93,10.6-18.36,2.49-.11,4.5.75,4.57,2.29.07,1.49-4.1,12.3-4,14.5.02.48.27.71.71.69,1.25-.06,2.84-2,4.01-4.7,1.2-.05,1.75.5,1.79,1.31.13,2.78-4.84,8.63-9.16,8.83-2.21.1-3.44-1.67-3.53-3.54-.04-.82.15-1.98.57-3.2-2.35,4.29-5.57,7.46-8.64,7.6-2.25.1-3.67-1.51-3.8-4.2Z"/><path d="M216.59,657.23c1.28-3.62,1.98-7.11,2.26-10.48.67-.17,1.24-.3,1.76-.32,1.58-.07,2.15.72,2.19,1.73.14,3.02-3.02,9.65-4.65,9.73-.77.04-1.21-.19-1.57-.65Z"/><path d="M213.93,680.03c2.32-1.88,6.15-10.52,8.83-17.08-.79-.49-1.05-.91-1.08-1.58-.05-1.2,1.88-5.13,3.41-8.47,2.17.19,3.59.8,3.65,2.09.04.91-1.41,2.9-1.38,3.48.02.34.46.51,3.68,1.61,2.15.72,3,1.45,3.05,2.6.09,2.01-3.95,9.17-3.83,11.9.01.29.11.38.31.37,1.77-.08,4.63-2.76,7.17-8.21l.57-1.18c1.15-.05,2.05.63,2.08,1.44l-.56,1.37c-2.49,5.4-8.05,12.09-12.51,12.3-1.58.07-3.03-1.11-3.12-3.12-.1-2.11,1-5.33,3.11-10.81.56-1.32.55-1.71-.97-2.26l-1.08-.43c-5.4,14.38-7.33,17.16-9.45,17.25-.77.04-1.41-.32-1.88-1.26Z"/><path d="M236.33,672.85c-.27-5.8,5.41-16.25,11.78-16.54,2.59-.12,5.45,1.48,5.59,4.45.2,4.46-3.84,9.55-8.64,9.77-1.34.06-2.27-.13-3-.49-.12.63-.14,1.21-.11,1.78.12,2.54,1.45,3.39,3.66,3.29,2.16-.1,4.92-1.62,6.75-4.78.74.4,1.11,1.15,1.13,1.68.16,3.45-4.98,7.82-9.96,8.05-4.17.19-6.97-2.04-7.2-7.21ZM243.87,667.56c3.6-.17,5.53-5.16,5.44-7.22-.03-.58-.23-.76-.61-.74-1.82.08-4.63,3.77-5.99,7.72.39.17.78.25,1.16.24Z"/><path d="M263.61,675.69c-.15-3.21,4.96-14.5,6.24-20.18,2.89.2,4.66.94,4.74,2.76.04.82-1.11,4.14-2.67,7.91,3.06-5.67,7.27-11.29,11.54-11.49,2.06-.09,2.98,1.11,3.06,2.74.06,1.34-.44,2.9-1.08,4.81,2.7-4.06,5.74-7.95,9.48-8.12,2.06-.09,3.17,1.06,3.24,2.59.17,3.69-4.48,12.31-4.38,14.52.02.34.17.52.5.51,1.34-.06,4-1.82,6.75-7.85l.57-1.18c1.05-.05,2.09.43,2.13,1.44l-.61,1.38c-2.4,5.35-7.26,11.53-11.91,11.74-2.11.1-3.36-.9-3.45-2.92-.17-3.6,4.13-11.63,4.06-13.16-.02-.43-.22-.66-.75-.64-3.26.15-7.76,6.94-9.31,16-3.49.4-5.4-.47-5.45-2.49.1-3.03,4.35-10,4.24-12.4-.02-.38-.22-.61-.75-.59-4.36.2-9.86,11.41-10.14,17.81-4.12.19-5.95-.93-6.06-3.18Z"/><path d="M296.64,680.47c-.07-1.63.53-2.04,2.35-2.22,4.12-.38,7.46-.82,10.26-1.48.81-2.25,1.51-4.83,2.21-7.36l-.15-.09c-3.03,4.13-5.73,6.08-8.41,6.2-2.21.1-3.76-1.37-3.9-4.29-.2-4.32,4.71-13.53,5.5-17.41,3.61.08,4.71,1.03,4.77,2.38.08,1.82-4.05,10.28-3.91,13.25.02.53.28.9.86.87,2.54-.12,7.19-5.66,9.89-16.89,2.79.02,4.41.81,4.48,2.29.09,1.97-3.76,13.39-5.8,19.25,2.49-1.17,4.34-2.75,5.84-4.78.93.44,1.34.9,1.37,1.62.09,1.97-2.61,4.83-8.63,6.83-2.43,5.73-5.93,10.12-10.39,10.33-3.5.16-6.12-3.47-6.35-8.5ZM303.03,684.45c2.11-.1,3.62-1.85,4.89-4.4-1.96.33-4.15.62-6.55.78-.81.08-.91.14-.89.47.07,1.49.92,3.22,2.55,3.15Z"/><path d="M333.24,667.55c1.65-9.01,7.72-21.3,9.85-26.16,3.04-.72,5.53-1.07,7.54-1.16,6.71-.31,10.13,1.99,10.29,5.49.26,5.61-4.56,10.59-9.16,12.96,2.56.22,4.43,1.29,4.54,3.68.31,6.67-10.07,13.1-14.86,13.32-5.23.24-8.93-4.11-8.2-8.13ZM350.38,663.01c-.02-.53-.43-.94-1.24-.9-1.39.06-5.24.91-8.8,1.94l-1.42,4.77c-.41,1.46-.1,1.93,1.33,1.86,4.84-.22,10.23-5.32,10.12-7.67ZM354.44,647.83c-.07-1.63-1.32-2.63-3.62-2.53-.96.04-2.11.14-3.35.39-1.85,3.59-3.91,8.97-5.62,13.81,8.16-2.39,12.76-7.84,12.58-11.68Z"/><path d="M372.34,645.14c-1.82.18-3.59.31-5.22.38-2.35.11-3.39-1.57-3.69-4.92,6.33-.39,16.28-1.23,19.78-1.39,1.73-.08,3.1.53,3.48,4.55-2.16.1-5.17.43-8.37.77-1.74,4.98-6.99,18.29-9.55,29.75-2.49.11-4.78-.6-4.91-3.38-.15-3.26,4.07-16.04,8.48-25.76Z"/><path d="M382.96,663.97c-.48-10.45,9.16-25.55,19.85-26.04,2.88-.13,6.09,2.89,6.22,5.62.19,4.22-2.97,8.69-6.61,8.86-1.34.06-2.08-.19-2.77-.74,2.38-2.56,4.27-5.48,4.13-8.36-.02-.48-.17-.67-.65-.64-5.61.26-14.11,11.89-13.69,21.1.14,3.07,1.58,3.96,4.16,3.85,4.56-.21,8.2-2.49,11.19-6.47.25,6.57-4.75,11.65-11.85,11.98-5.32.24-9.73-3.54-9.98-9.15Z"/><path d="M406,669.88c-.11-2.49,1.2-5.34,3.45-5.44,1.92-.09,3.13,1.11,3.19,2.54.11,2.4-1.62,5.55-3.78,5.65-1.87.09-2.79-1.03-2.87-2.75Z"/><path d="M419.22,647.94c1.28-3.62,1.98-7.11,2.26-10.48.67-.17,1.24-.3,1.76-.32,1.58-.07,2.15.72,2.19,1.73.14,3.02-3.02,9.65-4.65,9.73-.77.04-1.21-.19-1.57-.65ZM426.03,647.63c1.28-3.61,1.98-7.11,2.26-10.48.67-.17,1.24-.3,1.76-.32,1.58-.07,2.15.72,2.19,1.73.14,3.02-3.02,9.65-4.65,9.73-.77.04-1.21-.18-1.57-.65Z"/></g><g id="Illustrations"><path class="cls-3" d="M339.84,475.2c9.18,1.88,54.46,9.47,43.46,24.02-51.07,23.44-140.05,13.53-194.76,1.77-66.62-19.03-3.07-32.39,27.94-33.47,33.99,2.7,99.13,31.73,123.36,7.68Z"/><path class="cls-12" d="M216.48,467.52c-31.8-7.87-66.23-7.45-53.04-50.89,5.4-25.75,12.16-51.29,18.12-76.92,2.72-7.74,8.53-15.39,17.64-14.76-5.95-13.2-1.41-30.9,15.04-20.25,2.4-1.48,7.37-3.85,10.4-4.47,2.59-1.12,5.02-3.47,8.12-3.64.22-10.99,7.14-22.36,18.24-24.96-1.98-17.71,18.71-30.11,24.05-8.11.72.74.83-.26,1.07-.62,2.89-9.65,15.14-12.97,19.46-2.39,7.52,18.79-13.96,27.85-12.85,39.01,12.19-3.37,24.4,2.49,31.42,12.53l.88.34c2.99-1.21,6.2-1.89,9.46-1.83-5.88-10.11,2.12-21.14,11.76-11.04,6.22-10.4,17.43-2.1,15.12,8.17,37.26-12.45,54.98,54.68,11.99,55.2-21.29,139.1-6.55,138.47-146.88,104.64Z"/><path class="cls-12" d="M274.2,271.56c-9.85-44.22-40.91,10.71,4.45,23.53.64-.04,7.2-8.73,8.1-10.02,14.66-16,3.76-39.65-7.48-21.88-.79,1.67-2.58,11.46-5.07,8.37Z"/><path class="cls-12" d="M251.96,273.65c-10.13.89-17.57,13.28-17.24,22.99,4.54.56,2.9-1.43,3.57-4.35,3.62-16.68,16.75-13.2,13.66-18.65Z"/><path class="cls-12" d="M253.44,277.92c-.92-.13-1.65.31-2.42.71-2.79,1.46.65.88,2.13.73.6-.06.22-.95.29-1.44Z"/><path class="cls-12" d="M249.12,280.32c-5,.11-9.59,10.54-9.64,15.13,0,2.47,2.17,2.46,3.89,4.3,2.81,4.28,1.23,3.37,5.71,1.4-.67-.11-.42-9.66-.44-10.27h-3.36c.81-3.58-2.31-5.83,1.92-6.24v.96c-.25.08-.83-.2-.97.31-.11.41-.13,3.87,0,4.01.16.16,2.71-.12,3.36,0v9.84c0,.39.89.95.26,2.16-.8,1.53-3.29.19-2.67,2.16.14.46,6.92,4.41,7.45,6,.69-1.31-.61-3.47,1.44-3.84,3.64-.66,4-.1,3.6,3.36h2.89c-.9-5.75,1.31-4.14,4.33-6.47,2.45-1.9,4.29-5.81,1.46-8.2-1.51-1.28-5.39-.97-2.42-2.85,0-.9-4.01-3.26-5.04-4.09-3-2.43-3.09-4.9-7.93-3.35v-4.8c-1.27.34-2.53.51-3.84.48Z"/><path class="cls-12" d="M255.84,283.68c.47-.44-1.11-3.17-1.91-3.36.15,2.27-.97,3.9,1.91,3.36Z"/><path class="cls-12" d="M267.84,292.32c-.52-.52-1.48.43-.95.95s1.48-.43.95-.95Z"/><path class="cls-12" d="M269.76,294.72c3.27,4.82-1.75,10.35-6.03,11.5-.74,1.05.77,2.72.07,3.89-.45.62-4.9.63-5.08.45-.17-.17.12-2.71,0-3.36h-2.89c-.45,3.05.51,6.48,2.72,8.67,7.49-.22,6.85-2.17,10.73-7.93,3.99-3.45,7.69-5.71,6.64-11.23-.18-.28-5.22-2.04-6.17-2.46-.36-.16-.93-1.13-1.43-.72l1.43,1.2Z"/><path class="cls-12" d="M338.87,324.96c1.78-7.06,10.27-11.94,10.6-19.43.45-10.35-11.76-11.25-11.56-.56-2.46,1.39-2.46-1.69-3.43-3.21-2.69-4.2-8.51-5.75-9.4.53-1.13,9.71,9.76,15.05,13.79,22.67Z"/><path class="cls-12" d="M280.72,300.4c.35-.58-.04-2.03.08-2.8-1.32,1-1.56,1.77-3.35.96v2.88c.26.27,3.13-.81,3.27-1.04Z"/><path class="cls-12" d="M201.76,305.92c-7.08,11.7,6.12,30.11,13.27,38.97,6.41,7.01,28.3-23,28.68-28.94,4.04-26-21.87-17.67-24.79.64-2.26,4.61-3.43-4.16-4.09-5.57-1.97-4.24-8.99-9.17-13.06-5.1Z"/><path class="cls-12" d="M280.37,350.92c-.28.2-1.2,2.7-.8,3.33,22.18,13.1,46.29-13.03,36.02-35.52-13.79-33.73-62.82-15.31-49.67,18.71,3.15-1.96,1.91-3.43,1.89-5.98-.29-37.59,43.7-32.31,46.1-3.85,1.83,19.06-16.84,30.93-33.54,23.31Z"/><path class="cls-12" d="M220.32,304.8c-.23-.24-3.89,1.55-4.12,1.91-.42.67.77,3.73,2.15,2.84.22-.14,2.17-4.53,1.97-4.75Z"/><path class="cls-12" d="M284.16,344.64c-.32-1.8.38-2.66-2.4-2.4l-.28,6.73c22.02,11.52,40.18-15.8,25.48-34.09s-42.29-4.02-37.2,18.73c5.25-2.71,9.18,4.61,12,1.68,0,0,0-10.8,0-10.8,0-.51-4.17-.33-4.32-.48-.16-1.13-.78-9.54,2.4-5.76-1.44-.27-.94.73-.96,1.66-.01.53-.11,3.03,0,3.15.17.17,3.13-.12,3.84,0v13.2c0,.93-2.74.45-2.31,2.29,1.79,5.5,3.99-1.36,4.71,6.11-.1-.09-.69.06-.96,0Z"/><path class="cls-12" d="M259.2,326.4c-.54-7.29-5.92-16.1-12.47-19.2-.51,4.77,3.88,6.93,6.14,10.89,1.94,3.38,1.99,8.48,6.33,8.3Z"/><path class="cls-12" d="M363.85,356.63c39.55-.45,19.72-59.81-13.47-46.34-8.36,11.32-15.78,21.06-5.49,34.34,3.56-1.24-.1-4.95-.95-7.7-6.28-19.53,13.77-33.51,29.5-20.86s11.65,37.47-10.08,37.21c.4.65.37,3.23.48,3.35Z"/><path class="cls-12" d="M328.8,316.32c-2.35-6.17-8.6-3.52-13.44-2.39.32,5.9,6.79-.08,13.44,2.39Z"/><path class="cls-12" d="M365.28,344.16c-.02-.48.02-.96,0-1.44h-2.41c.18,3.12-1,5.82.78,8.67,22.88.54,22.24-29.71,3.67-36.87s-28.97,12.83-19.04,27.27c.77-.81,4.33-.85,4.49-1.02.17-.18-.13-1.35.25-1.9s1.82-.35,2.14-1.25c.16-.45-1.07-9.11-1.35-9.5-.55-.77-2.41.26-3.19-.75-.74-.95-.5-4.24-1.2-5.52l2.89-.25v.48c-2.33.29-1.31,2.59-.98,4.01.49.86,2.32-.48,3.31,1.1.46.74,1.76,10.54,1.46,11.39-6.72,3.18,5.23,2.61,5.35,7.49,1.38-.69-.9-3.19.45-4.1,1.39-.5,4.94-.77,4.34,1.71l-.96.48Z"/><path class="cls-12" d="M252.94,325.41c.52-.73-1.91-5.39-2.48-6.36-.4-.68-2.97-4.75-3.74-4.17-.56.42-2.8,11.9-5.28,12.72l3.6,3.11h.7c1.11-2.91,4.21-4.66,7.19-5.3Z"/><polygon class="cls-12" points="264 316.8 259.68 317.28 261.6 325.44 264 316.8"/><path class="cls-12" d="M334.08,331.2c6.82-11.52-6.91-15.97-16.3-12.94.11,2.64,1.6,9.49,3.1,12.01.78,1.65-1.12,3.78-1.7,5.48-.53,1.55-4.23,12.21-3.78,12.7.09.1,1.47.14,1.88.52,2.26-12.42,8.51-9.76,7.21-14.88h.96c-.59,2.83,2.13.93,2.88.96,2.16,1.11,4.4.24,6.72,1.44-.15-1.82.63-3.94-.96-5.28Z"/><path class="cls-12" d="M339.36,339.84c.2.2.61,2.4,1.44,1.44.6-.7-.9-1.3-.96-1.44-1.94-2.48-1.25-14.8-2.63-13.92-.98.3-.75,10.28,0,11.99.36.8,1.58,1.37,2.15,1.94Z"/><path class="cls-12" d="M200.64,327.36c-13.87.24-16.35,15.31-18.97,25.92-6.71,27.15-13.03,54.77-17.51,82.32.39,9.71,7.01,17.06,16.31,18.97l22.55-103.51c.11-2.9-6.47-3.02-8.73-4.63-9.13-4.94-3.16-16.58,6.34-14.26v-4.8Z"/><path class="cls-12" d="M264.04,344.59c-.45-.3-.85-8.21-2.02-10.69-3.31-7.03-11.8-7.73-15.06-.3-2.95,6.72-.38,16.46,2.56,22.88,1.13,2.47,8.64,14.57,10.88,14.57,1.51,0,8.87-9.95,10.33-11.76,4.13-5.12,8.88-8.05,8.09-15.8-.44-4.36-4.33-10.05-8.83-6.06-1.63,1.45-3.68,8.68-5.95,7.16Z"/><path class="cls-12" d="M234.72,337.44c-.32,2.95-3.21-.44-6.24,4.8,4.91.42,5.06-1.89,4.8,3.85h3.36c-1.17-6.48-.59-4.1,4.78-6.98,5.95-6.02.83-15.18-4.89-5.37-.61,1.23-.03,3.96-1.81,3.71.07-.07.2-1.57.24-1.91l-2.16,2.16c.34-.05,1.84-.18,1.91-.24Z"/><path class="cls-12" d="M245.28,351.84c-22.55,9.91-31.32-1.16-42.23-19.2,1.49,20.27,24.54,32.75,42.24,22.8,1.04-1.15-.01-2.26-.01-3.6Z"/><path class="cls-12" d="M200.59,333.65c-6.26-.94-11.72,6.21-5.09,10.13.91.54,9.1,3.6,9.46,3.26-1.92-4.36-3.94-8.53-4.36-13.39Z"/><path class="cls-12" d="M339.85,393.12c3.25-.73,4-6.83,6.03-9.56,6.1-10.23,16.81-18.43,14.96-31.83-1.3-9.41-11.44-11.14-15.33-2.61-.64,1.39-.88,5.22-3.02,4.65-.61-.16-2.55-8.82-4.81-11.52-8.08-9.65-16.83-1.63-17.95,8.46-1.86,16.66,6.89,23.11,15.51,34.79.95,1.29,4.25,7.38,4.61,7.64Z"/><path class="cls-12" d="M243.74,349.34l-1.1-9.5c-.61,1.03-4.73,2.1-4.96,2.48-.41,6.27,1.39,4.53-5.36,5.2-.14-1.13.66-4.28-1.16-4.3-3.29-.03-1.83,1.64-2.2,3.58-.32,1.7-5.53,2.85-5.53-.25-.83,1.25-3.45,1.86-3.14,3.58,6.61,3.95,16.91,3.65,23.44-.8Z"/><path class="cls-12" d="M341.04,341.76v.48c.31-.16.31-.32,0-.48Z"/><path class="cls-12" d="M224.64,347.04c3.91.55,3.5-1.1,3.36-4.32-1.62,1.07-3.78,1.97-3.36,4.32Z"/><path class="cls-12" d="M341.52,342.72v.48c.31-.16.31-.32,0-.48Z"/><path class="cls-12" d="M342.72,345.12c.23.55-.16,1.76.96,1.92.44-1.27-.71-1.53-.96-1.92-.22-.34-.05-1.12-.72-1.43-.41.5.57,1.08.72,1.43Z"/><path class="cls-12" d="M385.44,347.04c.34-.67-.3-1.28-.47-.96-.34.67.3,1.28.47.96Z"/><path class="cls-12" d="M314.48,348.85c-.26-.38.19-1.24-.32-1.33-3.3,2.94-.28,4.24,2.63,5.28,1.91-4.02-1.73-3.08-2.31-3.95Z"/><path class="cls-12" d="M384.72,347.52v.48c.31-.16.31-.32,0-.48Z"/><path class="cls-12" d="M384.48,348.48c-11.82,14.9-22.28,5.7-21.6,12.47,8.79.67,18.31-4.09,21.6-12.47Z"/><path class="cls-12" d="M339.91,396.4c-1.58-3.36-5.97-10.22-9.19-12.16,0,0-60.79-17.02-60.79-17.02-2.94-.28-6.02,7.45-8.95,6.63-.67-.19-7.14-6.34-8.04-7.36-1.45-1.65-2.49-4.4-4.3-5.3-5.98-3.01-8.17-.25-13.7.24-17.58,1.65-18.95-7.03-30.47-10.55l-21.56,104.33c37.48,11.1,77.38,17.21,115.55,26.56,49.49,12.17,47.08-40.08,54.18-73.68,1.95-7.41,2.13-15.04-6.28-18.3-1.19.28-3.22,8.66-6.46,6.61Z"/><path class="cls-12" d="M316.8,358.08c-.07-.85.16-1.83,0-2.64-.12-.63-5.14-3.94-5.61-4.02-6.04,1.74,4.47,6.72,5.61,6.66Z"/><path class="cls-12" d="M317.17,360.11c-.22-.22-3.47-1.15-4.36-1.63-1.12-.6-4.85-3.74-5.35-3.75-6.26,3.77-14.94,6.13-22.33,3.84,10.01,4.54,23.18,5.23,33.83,9.6.42,0-1.49-7.76-1.79-8.06Z"/><path class="cls-12" d="M284.16,358.09c-2.5.05-5.58-3.77-7.19-1.2,1.55.41,6.33,2.8,7.19,1.2Z"/><path class="cls-12" d="M327.84,380.64c-1.93-3-4.97-5.97-6.49-9.1-1.22-1.17-17.32-5.32-20.28-6.12-8.42-2.27-16.96-4.12-25.41-6.27-1.44,0-3.77,3.95-4.93,4.95l57.11,16.54Z"/><path class="cls-12" d="M357.6,382.08l1.92-12.96-6.67,9.44c-.11.76,4.56,3.75,4.75,3.52Z"/><path class="cls-12" d="M355.2,394.08c-.08-4.53,3.25-7.55-.73-11.03-4.52-3.96-4.96.19-6.99,4.03,3.17,1.62,5.33,4.46,7.71,7Z"/><path class="cls-12" d="M176.76,271.07c-.79-3.11-5.15-3.72-7.95-5.25-5.78-3.32-21.55-13.41-24.42-18.78-2.51-4.71-3.8-14.49-3.27-19.76,2.08-14.32,15.41-13.49,22.07-2.65,2.2-11.67,15.02-17.38,23.29-7.2,9.91,12.2-1.25,33.26-5.17,46.2-.59,1.94-1.41,10.58-4.55,7.44Z"/><path class="cls-12" d="M177.11,267.36c2.15-12.38,11.09-25.82,10.08-38.63-1.31-16.64-19.31-17.29-21.05-.43-.22,2.12.49,7.56-.77,8.83-3.93,2.38-2.72-4.67-3.86-7.2-1.63-4.74-7.18-11.98-12.89-9.07-4.99,2.54-3.74,11.91-3.1,16.42,1.16,8.27,2.58,9.68,8.89,14.63,7.18,5.64,14.97,10.64,22.71,15.45Z"/><path class="cls-16" d="M324.37,232.93c22.67-2.73,39.52,26.31,25.46,44.66-32.72,35.24-73.26-32.72-25.46-44.66Z"/><path class="cls-16" d="M323.4,235.8c-29.53,3.99-14.19,53.96,15.26,44.54,24.51-7.84,13.87-48.48-15.26-44.54Z"/><path class="cls-16" d="M305.28,251.52c-8.13,24.05,25.43,46.25,42.23,25.67-19.49,16.36-47.39-5.89-41.03-28.56-.44.83-.96,1.99-1.2,2.88Z"/><path class="cls-16" d="M349.2,274.56v.48c.31-.16.31-.32,0-.48Z"/><path class="cls-16" d="M348.72,275.53l-.72.72c0,.5,1.2-.28.72-.72Z"/><path class="cls-16" d="M221.17,219.97c39.54-4.75,40.71,52.46,7.49,55.97-35.67,3.77-41.85-51.84-7.49-55.97Z"/><path class="cls-16" d="M221.64,221.88c-40.86,10.38-14.81,65.03,19.55,42.11,19.99-15.8,4.23-45.13-19.55-42.11Z"/><path class="cls-16" d="M203.28,259.68v.48c.31-.16.31-.32,0-.48Z"/><path class="cls-16" d="M247.44,259.68v.48c.31-.16.31-.32,0-.48Z"/><path class="cls-16" d="M204.48,260.64c-.52-.52-1.48.43-.95.95s1.48-.43.95-.95Z"/><path class="cls-16" d="M204.48,262.08c8.92,16.56,34.31,15.69,42.71-1.21-11.61,12.81-30.28,13.11-42.71,1.21Z"/><path class="cls-12" d="M418.08,258.96v.48c7.75-7.37,21.65-.32,19.57,9.97-1.79,8.87-24.79,15.25-31.8,21-2.26,1.85-5.34,7.76-7.83,3.97-.39-13.06-2.89-37.07,1.91-48.78,3.94-7.52,12.54-8.12,16.5-.35,2.17,3.21,1.64,10.16,1.65,13.71Z"/><path class="cls-12" d="M399.36,292.32c6.05-11.1,44.48-14.99,33.31-30.2-4.88-5.95-12.2-1.89-16.29,2.82-.71.82-1.99,4.38-3.36,2.43-.79-1.12,1.42-4.77,1.84-6.35,3.92-9.71-3.98-28.34-13.19-13.67-3.58,10.24-1.88,33.12-2.3,44.97Z"/><path class="cls-12" d="M239.05,142.08c.9.69,1.03-.75,1.42-1.18,5.28-5.87,11.19-1.32,11.96,5.32.92,7.98-4.48,12.28-6.9,18.91-.51,2.77-2.45,11.46-4.67,4.9-10.55-1.62-22.96-20.75-15.95-30.31,3.77-4.81,12.12-3.12,14.14,2.37ZM241.43,168.48c.96-8.06,15.39-22.28,3.64-27.35-4.51.27-2.5,10.04-5.75,9.08-1.18-.35-1.36-3.66-1.84-4.9-3.5-9.19-12.93-6.32-11.77,3.13.85,6.94,8.65,18.09,15.71,20.04Z"/><path class="cls-12" d="M317.28,172.32c8.25-6.65,13.06,1.44,10.17,9.46-2.2,6.09-9.24,7.37-14.16,10.32-2.21,1.32-3.45,3.71-6.09,3.26,1.22-9.25-7.12-17.35-2.97-26.73,3.54-8,13.52-4.55,13.05,3.69Z"/><path class="cls-12" d="M324.85,172.91c-4.36-3.92-10.56,9.56-10.42,3.56.16-3.51,1.73-10.72-4.54-9.9-9.1,1.19-1.35,19.77-.76,24.95,7.09-3.7,20.92-7.82,15.73-18.61Z"/><path class="cls-16" d="M420.97,144.48c16.22-8.76,14.55,18.42-8.79,18.73-.26-.07-2.79-3.6-3.09-4.22-7.11-14.71,7.63-36.21,11.88-14.51Z"/><path class="cls-16" d="M411.88,160.77c6.33-.33,19.59-5.06,17.02-13.44-1.96-6.4-7.34.93-8.91,1.73-2.46,1.26-1.34-3.22-1.39-3.86-3.14-19.44-13.86,4.8-6.72,15.57Z"/><path class="cls-11" d="M339.91,396.4c3.23,2.04,5.27-6.33,6.46-6.61,8.38,3.29,8.24,10.87,6.28,18.3-7.12,33.6-4.68,85.85-54.18,73.68-38.17-9.34-78.09-15.46-115.55-26.56,0,0,21.57-104.33,21.57-104.33,11.57,3.54,12.84,12.19,30.47,10.55,5.53-.5,7.72-3.25,13.7-.24,1.8.91,2.85,3.66,4.3,5.3.9,1.02,7.36,7.17,8.04,7.36,2.93.82,6-6.91,8.95-6.63l60.79,17.02c3.19,1.94,7.61,8.81,9.19,12.16ZM265.92,392.16c-.04-2.54,2.97-7.91,1.68-10.08-.69-1.17-8.17-1.92-9.37-1.2-1.11.66-2.2,7.73-2.39,9.37l-10.03-1.88c.2,3.31-3.84,9.86-2.86,12.62.53,1.52,7.51.99,6.57,4.25l-5.91,19.57c-1.18,1.42-5.14-1.16-6.74.46-.5.51-2.71,9.05-2.65,9.86.18,2.29,8.16,1.58,9.39,3.59,1.03,1.67-2.29,8.25-.74,9.38,6.98,1.77,11.29,2.65,11.53-6.49l6.24,1.45c-3.04,7.11-2.65,8.5,5.16,9.47,6.52.81,3.71-3.85,5.37-8.31,13.97,1.01,29.99-14.33,15.4-25.64,6.59-1.98,8.29-6.77,7.7-13.23-.68-7.42-8.58-10.17-14.88-11.28,1.01-5.5,2.54-8.63-4.59-9.1-6.16-.41-3.21,5.85-4.57,7.18-.26.26-3.49-.12-4.29.02Z"/><path class="cls-11" d="M200.64,327.36v4.8c-9.5-2.3-15.48,9.3-6.34,14.26,2.26,1.61,8.83,1.74,8.73,4.63,0,0-22.55,103.51-22.55,103.51-9.31-1.91-15.92-9.26-16.31-18.97,4.48-27.55,10.8-55.17,17.51-82.32,2.62-10.6,5.1-25.67,18.97-25.92Z"/><path class="cls-10" d="M339.85,393.12c-.36-.26-3.66-6.35-4.61-7.64-8.61-11.69-17.37-18.13-15.51-34.79,1.13-10.09,9.87-18.1,17.95-8.46,2.26,2.7,4.2,11.36,4.81,11.52,2.13.57,2.38-3.25,3.02-4.65,3.88-8.52,14.02-6.79,15.33,2.61,1.86,13.4-8.86,21.6-14.96,31.83-2.03,2.74-2.78,8.82-6.03,9.56Z"/><path class="cls-10" d="M201.76,305.92c4.07-4.07,11.09.86,13.06,5.1.66,1.41,1.83,10.19,4.09,5.57,2.92-18.3,28.84-26.65,24.8-.64-.35,5.91-22.27,35.94-28.68,28.94-7.16-8.88-20.35-27.26-13.27-38.97Z"/><path class="cls-5" d="M278.88,317.28c-2.46-.47-1.37,5.85-1.44,6.72.16.15,4.32-.03,4.32.48v10.8c-2.79,2.93-6.78-4.39-12-1.68-5.09-22.74,22.14-37.48,37.2-18.73s-3.46,45.61-25.48,34.09l.28-6.73c5.6-.81-1.74,7.47,7.4,3.9,1.03-.69-1.28-5.47,3.16-4.38.13,1.04-.4,3.5.45,4.12,8.09-1.04,4.68,1.11,5.53-5.1,6.33-1.57,12.14-10.83,3.62-14.39,2.2-2.48,3.07-4.44,1.68-7.67-2.15-4.97-8.84-2.83-9.36-3.36-.4-.41.98-3.43-1.2-3.84-6.4-1.22-1.23,4.57-5.52,4.8.17-4.85.47-6.14-4.81-4.79-.63,2.92,1.94.28,3.84.95v4.8c5.23-.49,4.63.43,3.84-4.32,4.14-.27,2.41,0,2.88,2.63.38,2.09,2.02.65,3.52.75,2.95.2,5.27,1.13,5.87,4.27.85,4.45-3.5,4.58-3.15,6.01,4.3,2.09,6.93,3.9,3.93,8.74-2.83,4.56-8.22,1.9-6.81,8.79h-2.89c-.12-.66.17-3.2,0-3.36-.19-.19-4.9-.07-5.31.21-.99.69,1.2,5.6-3.03,4.62-.85-1.02-.4-3.34-1.01-4.37-.89-1.26-3.1,1.12-4.01-2.73-.43-1.83,2.31-1.36,2.31-2.29v-13.2c-3.81-.25-4.18,1.36-3.84-3.14.02-.92-.48-1.93.96-1.66,2.83-.31,4.47.07,2.88-3.36-.1-.43.25-1.45-.24-1.44-1.03,2.86,1.34,4.19-3.6,3.84ZM289.27,320.71c-1.14.38-1.05,5.04-.58,5.72.67.96,4.11.52,5.05-.29,2.87-2.46-.9-6.63-4.48-5.44ZM289.51,331.27c-.29.47-.22,5.54.38,5.96,2.81.97,7.28-.21,6.76-3.84-.41-2.89-6.37-3.37-7.15-2.12Z"/><path class="cls-10" d="M274.2,271.56c2.5,3.1,4.28-6.69,5.08-8.37,11.24-17.78,22.13,5.89,7.47,21.88-.9,1.29-7.46,9.97-8.1,10.02-45.39-12.86-14.27-67.72-4.45-23.53Z"/><path class="cls-10" d="M264.04,344.59c2.27,1.52,4.32-5.71,5.95-7.16,4.5-3.99,8.39,1.69,8.83,6.06.79,7.75-3.96,10.68-8.09,15.8-1.46,1.81-8.83,11.76-10.33,11.76-2.24,0-9.76-12.11-10.88-14.57-2.93-6.42-5.51-16.16-2.56-22.88,3.26-7.43,11.75-6.73,15.06.3,1.17,2.48,1.57,10.39,2.02,10.69Z"/><path class="cls-5" d="M352.32,321.6l-2.89.25c.69,1.29.46,4.57,1.2,5.52.78,1.01,2.64-.02,3.19.75.28.39,1.51,9.05,1.35,9.5-.32.91-1.75.67-2.14,1.25s-.08,1.73-.25,1.9c-.16.17-3.72.21-4.49,1.02-9.92-14.44.77-34.32,19.04-27.27s19.21,37.41-3.67,36.87c-1.77-2.85-.6-5.55-.78-8.67h2.41c.14,2.56-.78,4.23,3.14,3.38,3.29-.4.73-2.94,1.22-4.5.26-.81,1.88-1.14,2.6-1.75,3.66-3.11,3.89-10.54-1.69-11.53,4.33-5.3-1.58-11.62-7.39-9.56-.43-.03-.02-1.58-1.24-1l.49,2.4c6.42-2.36,11.03,3.08,6.23,8.39,3.61,1.62,6.32,2.96,4.55,7.44-1.78,4.5-6.66,2.55-4.55,8.64-1.84-.14-2.22.72-2.4-.96-.08-.74.17-1.53-.79-1.85-6.95-.81-2.31,1.97-4.01,4.25-.12-4.89-12.06-4.31-5.35-7.49.3-.85-.99-10.64-1.46-11.39-.99-1.58-2.82-.24-3.31-1.1-.33-1.42-1.34-3.73.98-4.01,3.96.32.2-3.6,1.89-5.07,2.91-1.98,2.02,4.02,2.67,4.12,5.16.76,2.71-3.92,3.11-4.33l2.87.24c-.77-1.49-1.58-2.31-3.35-1.45-2.31,1.12,1.3,4.72-1.92,4.08.12-3.49-.77-5.3-4.33-3.61-1.67,1.26,1.35,4.68-.95,5.53ZM363.71,324.6c-.8-.84-4-1.32-4.65-.58-.33.38.92,4.24.46,5.26,3.33,1.24,6.73-2,4.2-4.68ZM361.98,338.81c.87.56,4.06-.1,4.77-1.1,3.58-5.62-9.37-8.67-4.77,1.1Z"/><path class="cls-5" d="M280.37,350.92c16.7,7.62,35.37-4.25,33.54-23.31-2.39-28.46-46.39-33.74-46.1,3.85.02,2.55,1.25,4.02-1.89,5.98-13.16-34.02,35.88-52.45,49.67-18.71,10.26,22.48-13.84,48.62-36.02,35.52-.4-.62.52-3.12.8-3.33Z"/><path class="cls-10" d="M338.87,324.96c-4.02-7.62-14.91-12.96-13.79-22.67.89-6.28,6.7-4.73,9.4-.53.98,1.52.97,4.6,3.43,3.21-.2-10.7,12.01-9.79,11.56.56-.33,7.49-8.82,12.37-10.6,19.43Z"/><path class="cls-15" d="M327.84,380.64l-57.11-16.54c1.16-1,3.49-4.94,4.93-4.95,8.45,2.15,16.99,4.01,25.41,6.27,2.97.8,19.07,4.95,20.28,6.12,1.52,3.14,4.56,6.1,6.49,9.1Z"/><path class="cls-9" d="M363.85,356.63c-.12-.12-.08-2.7-.48-3.35,21.74.26,25.4-24.89,10.08-37.21s-35.79,1.34-29.5,20.86c.86,2.74,4.49,6.46.95,7.7-10.3-13.3-2.87-23.02,5.49-34.34,33.22-13.46,53,45.89,13.47,46.34Z"/><path class="cls-5" d="M249.12,280.32l.48,4.32c-6.41-.25-4.04.85-4.32,6.24h3.36c.05.82-.26,9.86.44,10.27-4.48,1.96-2.9,2.89-5.71-1.4-1.72-1.84-3.89-1.83-3.89-4.3.05-4.59,4.65-15.02,9.64-15.13Z"/><path class="cls-5" d="M250.08,280.32c1.01-.08,1.9-.22,2.88-.48v4.8c4.84-1.55,4.93.91,7.94,3.35,1.02.83,5.04,3.19,5.04,4.09-2.97,1.88.91,1.57,2.42,2.85,2.84,2.39.99,6.3-1.46,8.2-3.01,2.33-5.23.72-4.33,6.47h-2.89c.4-3.46.04-4.03-3.6-3.36-2.04.37-.75,2.53-1.44,3.84-.54-1.59-7.31-5.54-7.45-6-.62-1.98,1.87-.63,2.67-2.16.63-1.21-.26-1.77-.26-2.16v-9.84c-4.66.14-3.35.36-3.37-4.01,4.2-1.25,3.98-.87,3.85-5.59ZM254.88,293.28c5.35,1.19,8.6-3.77,2.53-5.66-3.96-.41-2.2,2.85-2.53,5.66ZM261.49,302.29c1.81-1.79.44-4.99-2.5-5.2-4.68-.33-2.85,2.3-3.14,5.79,1.58.12,4.39.66,5.64-.59Z"/><path class="cls-9" d="M245.28,351.84c0,1.34,1.05,2.46.01,3.6-17.7,9.95-40.75-2.53-42.24-22.8,10.91,18.06,19.71,29.1,42.23,19.2Z"/><path class="cls-15" d="M317.17,360.11c.29.29,2.2,8.06,1.79,8.06-10.65-4.37-23.82-5.06-33.83-9.6,7.39,2.29,16.07-.07,22.33-3.84.5.01,4.24,3.15,5.35,3.75.89.48,4.14,1.41,4.36,1.63Z"/><path class="cls-5" d="M243.74,349.34c-6.52,4.45-16.84,4.74-23.44.8-.31-1.72,2.32-2.33,3.14-3.58,0,3.09,5.2,1.95,5.53.25.37-1.94-1.09-3.61,2.2-3.58,1.82.01,1.02,3.17,1.16,4.3,6.77-.67,4.94,1.06,5.36-5.2.23-.37,4.35-1.44,4.96-2.48l1.1,9.5Z"/><path class="cls-9" d="M319.68,327.36c2.3-3.61,3.19,2.13,5.75-3.61,3.93-2.35.24,3.47.69,4.11.29.41,2.8,1.18,3.14.93.6-.44-.34-3.29,2.42-2.39.11,1.52-2.25,3.69.48,3.84,3.53,1.19,2.92,3.21,2.88,6.24-2.06-.88-3.67-.78-5.76-.96.33-6.65-6.27-4.7-4.55.98-3.63,2.15-6.87,7.92-7.45,12.46-.4-.38-1.79-.42-1.88-.52-.45-.49,3.26-11.15,3.78-12.7,2.19-4.43,2.38-3.81.5-8.38Z"/><path class="cls-9" d="M269.76,294.24c.95.42,5.99,2.19,6.17,2.46,1.04,5.55-2.64,7.76-6.64,11.23-3.92,5.78-3.19,7.7-10.73,7.93-2.2-2.21-3.17-5.61-2.72-8.67h2.89c.12.66-.17,3.2,0,3.36.18.18,4.63.17,5.08-.45.7-1.18-.81-2.84-.07-3.89,4.28-1.15,9.31-6.69,6.03-11.5v-.48Z"/><path class="cls-5" d="M319.2,325.92c-.23-.94-1.68-7.37-1.42-7.66,9.41-3.03,23.12,1.43,16.3,12.94-.13-.1-1.44-.68-1.92-.96-.63-2.13,2.06-4.42-1.31-5.18-3.06-.95-.47,3.05-3.49,2.29-.38-.34,3.17-4.76-1.33-5.2-2.2-.21-1.85,3.25-2.52,3.76-.38.29-3.81-3.29-4.31,0Z"/><path class="cls-16" d="M285.12,344.64c.05.05-.2.87.31.99,4.23.98,2.03-3.93,3.03-4.62.41-.28,5.12-.4,5.31-.21.17.17-.12,2.71,0,3.36h2.89c-1.41-6.89,3.98-4.23,6.81-8.79,3-4.84.37-6.65-3.93-8.74-.34-1.43,4-1.56,3.15-6.01-.6-3.14-2.91-4.07-5.87-4.27-1.5-.1-3.15,1.34-3.52-.75-.47-2.63,1.26-2.91-2.88-2.63.8,4.76,1.37,3.83-3.84,4.32v-4.8c-1.91-.67-4.47,1.96-3.84-.95,5.28-1.35,4.97-.04,4.8,4.79,4.29-.23-.89-6.02,5.52-4.8,2.18.42.79,3.43,1.2,3.84.52.53,7.21-1.62,9.36,3.36,1.39,3.23.53,5.19-1.68,7.67,8.53,3.56,2.71,12.81-3.62,14.39-.84,6.23,2.51,4.06-5.53,5.1-.85-.62-.32-3.08-.45-4.12-4.44-1.09-2.13,3.68-3.16,4.38-1.95.6-5.64,2.19-5-1.5.27.06.86-.09.96,0Z"/><path class="cls-9" d="M234.72,337.44c1.78.24,1.19-2.48,1.81-3.71,5.73-9.8,10.85-.65,4.89,5.37-5.38,2.87-5.95.52-4.78,6.98h-3.36c.27-5.74.1-3.42-4.8-3.84,3.06-5.26,5.91-1.82,6.24-4.8Z"/><path class="cls-15" d="M200.59,333.65c.43,4.86,2.44,9.03,4.36,13.39-.36.35-8.55-2.72-9.46-3.26-6.63-3.92-1.17-11.07,5.09-10.13Z"/><path class="cls-9" d="M251.96,273.65c3.11,5.41-10.06,2-13.66,18.65-.67,2.91.97,4.91-3.58,4.35-.33-9.71,7.11-22.11,17.24-22.99Z"/><path class="cls-5" d="M252.94,325.41c-2.98.64-6.08,2.39-7.19,5.3h-.7s-3.6-3.12-3.6-3.12c2.48-.82,4.72-12.3,5.28-12.72.77-.58,3.34,3.49,3.74,4.17.57.97,3,5.63,2.48,6.36Z"/><path class="cls-9" d="M259.2,326.4c-4.34.18-4.39-4.92-6.33-8.3-2.27-3.96-6.65-6.13-6.14-10.89,6.55,3.1,11.93,11.9,12.47,19.2Z"/><path class="cls-15" d="M355.2,394.08c-2.39-2.54-4.55-5.38-7.71-7,2.03-3.83,2.46-7.99,6.99-4.03,3.98,3.48.64,6.5.73,11.03Z"/><path class="cls-18" d="M366.24,343.68c.18,1.67.56.81,2.4.96-2.11-6.1,2.77-4.14,4.55-8.64,1.77-4.48-.94-5.82-4.55-7.44,4.8-5.31.19-10.76-6.23-8.39l-.49-2.4c1.22-.58.81.96,1.24,1,5.81-2.06,11.72,4.26,7.39,9.56,5.58.99,5.35,8.42,1.69,11.53-.72.62-2.35.94-2.6,1.75-.49,1.56,2.07,4.1-1.22,4.5-3.07.37-3.07.41-3.14-1.94l.96-.48Z"/><path class="cls-6" d="M384.48,348.48c-3.29,8.39-12.8,13.15-21.6,12.47-.71-6.76,9.8,2.4,21.6-12.47Z"/><path class="cls-9" d="M328.8,316.32c-6.63-2.48-13.11,3.51-13.44-2.39,4.84-1.13,11.09-3.78,13.44,2.39Z"/><path class="cls-15" d="M357.6,382.08c-.19.24-4.87-2.75-4.75-3.52l6.67-9.44-1.92,12.96Z"/><path class="cls-18" d="M319.2,325.92c.5-3.29,3.93.29,4.31,0,.67-.51.32-3.97,2.52-3.76,4.5.44.95,4.86,1.33,5.2,3.01.75.43-3.24,3.49-2.29,2.61.6,1.58,1.71,1.31,3.26h-.96c.16-.64.49-1.24.48-1.92-2.76-.91-1.82,1.95-2.42,2.39-.34.25-2.85-.52-3.14-.93-.45-.64,3.25-6.45-.69-4.11-2.57,5.75-3.44,0-5.75,3.61-.1-.38-.33-.82-.48-1.44Z"/><path class="cls-9" d="M316.8,358.08c-1.14.06-11.64-4.91-5.61-6.66.47.07,5.49,3.38,5.61,4.02.15.81-.07,1.79,0,2.64Z"/><path class="cls-6" d="M339.36,339.84c-.57-.57-1.79-1.13-2.15-1.94-.76-1.71-.98-11.69,0-11.99,1.36-.96.73,11.59,2.64,13.92h-.48Z"/><polygon class="cls-9" points="264 316.8 261.6 325.44 259.68 317.28 264 316.8"/><path class="cls-9" d="M314.48,348.85c.58.86,4.22-.08,2.31,3.95-2.91-1.03-5.93-2.34-2.63-5.28.51.09.06.95.32,1.33Z"/><path class="cls-9" d="M220.32,304.8c.2.21-1.75,4.61-1.97,4.75-1.37.89-2.57-2.17-2.15-2.84.22-.36,3.89-2.15,4.12-1.91Z"/><path class="cls-9" d="M224.64,347.04c-.42-2.35,1.74-3.25,3.36-4.32.15,3.22.55,4.87-3.36,4.32Z"/><path class="cls-9" d="M280.72,300.4c-.14.23-3.02,1.31-3.28,1.04v-2.88c1.79.81,2.03.04,3.35-.96-.12.77.27,2.23-.08,2.8Z"/><path class="cls-9" d="M328.32,335.04c-.75-.03-3.47,1.87-2.88-.96.65-3.15,3.25-1.83,2.88.96Z"/><path class="cls-15" d="M284.16,358.09c-.87,1.59-5.63-.79-7.19-1.2,1.62-2.57,4.69,1.26,7.19,1.2Z"/><path class="cls-18" d="M329.28,335.52c-.25-.02-.7-.47-.96-.48.37-2.79-2.23-4.11-2.88-.96h-.96c.7-4.78,5.59-2.77,4.8,1.44Z"/><path class="cls-18" d="M282.72,314.88c.13.58,1.03,2.25.45,2.86-.12.12-3.11.55-3.33.5-.19-.04-.69-.77-.96-.96,2.15.08,3.75.34,3.36-2.4h.48Z"/><path class="cls-6" d="M255.84,283.68c-2.88.54-1.76-1.08-1.91-3.36.81.19,2.38,2.92,1.91,3.36Z"/><path class="cls-6" d="M253.44,277.92c-.08.49.31,1.38-.29,1.44-1.47.15-4.91.73-2.13-.73.77-.4,1.5-.85,2.42-.71Z"/><path class="cls-18" d="M249.6,284.64c-.66.77-1.55.7-2.4.96v-.96c.79-.08,1.61.05,2.4,0Z"/><path class="cls-18" d="M250.08,280.32c-.17,1.42.51,3.18-.48,4.32l-.48-4.32c.31-.04.64.02.96,0Z"/><path class="cls-18" d="M339.84,339.84c.06.14,1.55.74.96,1.44-.83.97-1.23-1.23-1.44-1.44h.48Z"/><path class="cls-6" d="M342.72,345.12c.25.39,1.39.65.96,1.92-1.12-.16-.72-1.37-.96-1.92Z"/><path class="cls-6" d="M234.72,337.44c-.07.07-1.57.2-1.91.24l2.16-2.16c-.05.34-.18,1.84-.24,1.91Z"/><path class="cls-6" d="M267.84,292.32c.52.52-.43,1.48-.95.95s.43-1.48.95-.95Z"/><path class="cls-6" d="M269.76,294.24v.48l-1.43-1.2c.5-.41,1.07.57,1.43.72Z"/><path class="cls-18" d="M342.72,345.12c-.15-.35-1.13-.93-.72-1.43.68.31.51,1.09.72,1.43Z"/><path class="cls-6" d="M385.44,347.04c-.17.33-.82-.28-.47-.96.17-.33.82.28.47.96Z"/><path class="cls-18" d="M341.04,341.76c.31.16.31.32,0,.48v-.48Z"/><path class="cls-18" d="M341.52,342.72c.31.16.31.32,0,.48v-.48Z"/><path class="cls-6" d="M384.72,347.52c.31.16.31.32,0,.48v-.48Z"/><path class="cls-10" d="M177.11,267.36c-7.74-4.81-15.52-9.81-22.71-15.45-6.3-4.95-7.73-6.37-8.89-14.63-.63-4.51-1.88-13.87,3.1-16.42,5.71-2.91,11.26,4.32,12.89,9.07,1.14,2.52-.07,9.59,3.86,7.2,1.26-1.27.55-6.71.77-8.83,1.74-16.87,19.74-16.21,21.05.43,1.01,12.81-7.93,26.25-10.08,38.63Z"/><path class="cls-9" d="M323.4,235.8c29.13-3.94,39.77,36.7,15.26,44.54-29.45,9.42-44.79-40.55-15.26-44.54ZM327.68,237.78c-36.51,4.32-7.6,59.5,17.68,33.9,10.67-13.12-1.25-34.07-17.68-33.9Z"/><path class="cls-6" d="M305.28,251.52h.48c-3.02,22.34,23.3,41.03,41.75,25.67-16.81,20.58-50.36-1.63-42.23-25.67Z"/><path class="cls-15" d="M305.76,251.52h-.48c.24-.89.76-2.06,1.2-2.88.65.76-.67,2.4-.72,2.88Z"/><path class="cls-18" d="M348.72,275.53c.49.43-.72,1.22-.72.72l.72-.72Z"/><path class="cls-18" d="M349.2,274.56c.31.16.31.32,0,.48v-.48Z"/><path class="cls-9" d="M221.64,221.88c23.78-3.03,39.53,26.31,19.55,42.11-34.38,22.93-60.39-31.74-19.55-42.11ZM224.56,224.76c-28.87.87-26.74,44.24,3.68,41.16,26.19-2.65,24.16-41.99-3.68-41.16Z"/><path class="cls-6" d="M204.48,262.08c12.44,11.9,31.1,11.6,42.71-1.21-8.39,16.9-33.79,17.76-42.71,1.21Z"/><path class="cls-10" d="M399.36,292.32c.42-11.8-1.28-34.77,2.3-44.97,9.22-14.66,17.12,3.96,13.19,13.67-.42,1.58-2.63,5.23-1.84,6.35,1.38,1.95,2.65-1.61,3.36-2.43,4.1-4.72,11.41-8.78,16.29-2.82,11.18,15.2-27.26,19.1-33.31,30.2Z"/><path class="cls-10" d="M241.43,168.48c-7.06-1.95-14.85-13.11-15.71-20.04-1.16-9.45,8.27-12.31,11.77-3.13.47,1.24.66,4.56,1.84,4.9,3.25.95,1.23-8.81,5.75-9.08,11.74,5.09-2.69,19.28-3.64,27.35Z"/><path class="cls-10" d="M324.85,172.91c5.2,10.78-8.65,14.92-15.73,18.61-.59-5.18-8.34-23.76.76-24.95,6.27-.82,4.71,6.39,4.54,9.9-.14,6,6.08-7.48,10.42-3.56Z"/><path class="cls-10" d="M411.88,160.77c-7.15-10.82,3.59-34.99,6.72-15.57.05.65-1.07,5.12,1.39,3.86,1.56-.8,6.95-8.13,8.91-1.73,2.57,8.38-10.69,13.1-17.02,13.44Z"/><path class="cls-12" d="M265.92,392.16c.8-.15,4.03.23,4.29-.02,1.36-1.32-1.59-7.59,4.57-7.18,7.12.47,5.6,3.6,4.59,9.1,6.3,1.11,14.21,3.86,14.88,11.28.59,6.46-1.11,11.25-7.7,13.23,14.59,11.32-1.43,26.65-15.4,25.64-1.66,4.46,1.16,9.11-5.37,8.31-7.81-.96-8.2-2.36-5.16-9.47l-6.24-1.45c-.23,9.09-4.52,8.28-11.53,6.49-1.55-1.13,1.77-7.7.74-9.37-1.23-2.01-9.21-1.29-9.39-3.59,3.23-15,1.89-8.78,9.39-10.32,0,0,5.91-19.57,5.91-19.57.94-3.27-6.04-2.74-6.57-4.25-.97-2.76,3.06-9.3,2.86-12.62l10.03,1.88c.2-1.64,1.28-8.71,2.39-9.37,1.2-.72,8.68.03,9.37,1.2,1.28,2.17-1.72,7.54-1.68,10.08ZM265.4,383.56c-1.28-.24-4.79-1.37-5.73-.79-1.38.85-1.92,8.85-3.67,9.33-.86.24-7.5-1.13-7.82-.89l-2.39,7.84c2.37,2.3,8.17,1.1,6.57,5.71l-6.4,21.44c-1.35,2.52-5.04,1.13-7.38,1.5.23,1.44-1.75,5.68-.53,6.48,1.04.68,6.76.75,7.97,3.1.6,1.15-1.82,7.24-1.23,9.11,1.08-.21,5.77.31,6.19-.05.74-.63.24-6.69,2.69-7.15,1.34-.25,8.57,1.07,9.15,1.89,1.3,1.85-1.79,7.16-1.23,7.71,8.27,2.18,5.32.38,6.94-5.3,1.15-4.05,5.85-2.47,9.1-2.9,8.01-1.24,16.97-12.56,8.45-18.92-11.19-7.24,5.36-3.4,5.54-11.73,2.19-10.87-7.93-11.67-14.93-14.43-.6-1.2,1.79-5.89,1.22-7.66-11.7-3.21,2.55,9.28-14.39,5.75-.75-1.79,2.49-9.15,1.88-10.03Z"/><path class="cls-18" d="M289.51,331.27c.78-1.25,6.74-.77,7.15,2.12.51,3.64-3.95,4.81-6.76,3.84-.61-.42-.67-5.5-.38-5.96ZM295.12,332.71c-5.73-4.01-6.1,4.03-2.14,3.63,1.54-.2,2.96-2.29,2.14-3.63Z"/><path class="cls-18" d="M289.27,320.71c3.58-1.19,7.34,2.97,4.48,5.44-.94.81-4.38,1.24-5.05.29-.48-.68-.57-5.34.58-5.72ZM293.16,325.32c2.19-2.11-3.31-6.05-3.76-2.05-.33,2.9,2.15,3.6,3.76,2.05Z"/><path class="cls-16" d="M282.72,314.88h-.48c-.25-1.83.71-1.99.48,0Z"/><path class="cls-18" d="M361.98,338.81c-4.6-9.76,8.35-6.72,4.77-1.1-.71,1-3.9,1.66-4.77,1.1ZM362.95,337.37c3.08,1.93,5.16-3.53,1.09-3.77-2.5-.15-1.64,3.42-1.09,3.77Z"/><path class="cls-18" d="M363.71,324.6c2.54,2.68-.87,5.92-4.2,4.68.46-1.02-.79-4.88-.46-5.26.66-.74,3.86-.26,4.65.58ZM360.53,328.27c2.15,1.82,4.74-3.18,1.04-3.71-2.4-.35-1.4,3.41-1.04,3.71Z"/><path class="cls-18" d="M352.32,321.6c2.3-.85-.71-4.27.95-5.53,3.56-1.69,4.45.13,4.33,3.61,3.22.64-.39-2.96,1.92-4.08,1.76-.86,2.58-.04,3.35,1.45l-2.87-.24c-.41.41,2.04,5.09-3.11,4.33-.66-.1.23-6.1-2.67-4.12-1.69,1.47,2.06,5.38-1.89,5.07v-.48Z"/><path class="cls-18" d="M261.49,302.29c-1.26,1.25-4.06.71-5.64.59.29-3.49-1.54-6.12,3.14-5.79,2.94.21,4.31,3.41,2.5,5.2ZM257.33,301.87c4.98,1.26,5.28-5.01-.53-3.79-.19.19.34,3.62.53,3.79Z"/><path class="cls-18" d="M254.88,293.28c.33-2.81-1.43-6.06,2.53-5.66,6.07,1.9,2.82,6.85-2.53,5.66ZM255.84,292.32c.79.78,5.8-.59,2.86-3.1-3.2-2.73-3.3,2.66-2.86,3.1Z"/><path class="cls-12" d="M332.16,328.32c-.1.58.07,1.31,0,1.92-1.18-.14-1.89-.67-.96-1.92h.96Z"/><path class="cls-16" d="M327.68,237.78c16.44-.17,28.36,20.78,17.68,33.9-25.3,25.6-54.19-29.59-17.68-33.9ZM325.8,239.65c-23.95,3.12-13.34,42.42,10.3,36.21,20.48-5.38,10.89-38.97-10.3-36.21Z"/><path class="cls-16" d="M224.56,224.76c27.84-.84,29.86,38.51,3.68,41.16-30.42,3.08-32.55-40.29-3.68-41.16ZM220.8,227.04c-25.93,6.87-15.78,42.8,9.91,36.55,24.18-6.16,15.79-41.79-9.91-36.55Z"/><path class="cls-8" d="M265.4,383.56c.61.88-2.63,8.24-1.88,10.03,16.96,3.53,2.67-8.95,14.39-5.75.58,1.77-1.82,6.47-1.21,7.66,7.01,2.77,17.11,3.54,14.93,14.43-.18,8.33-16.73,4.49-5.54,11.73,8.53,6.35-.44,17.7-8.45,18.92-3.26.43-7.95-1.15-9.1,2.9-1.62,5.68,1.33,7.48-6.94,5.3-.56-.55,2.53-5.86,1.23-7.71-.58-.82-7.81-2.14-9.15-1.89-2.45.46-1.95,6.52-2.69,7.15-.42.36-5.12-.16-6.19.05-.59-1.87,1.82-7.96,1.23-9.11-1.21-2.35-6.93-2.42-7.97-3.1-1.22-.8.76-5.04.53-6.48,2.34-.37,6.03,1.02,7.38-1.5l6.4-21.44c1.6-4.6-4.2-3.41-6.57-5.71l2.39-7.84c.32-.23,6.96,1.13,7.82.89,1.75-.48,2.29-8.48,3.67-9.33.94-.58,4.45.55,5.73.79ZM262.16,412.24c14.44,8.07,18.4-10.55,2.8-10.97.11,2.43-3.97,9.08-2.8,10.97ZM258.36,432.85c4.19,2.18,11.71,4.04,14.04-1.81,2.89-6.73-7.96-11.86-11.91-9.15-.85.58-3.46,9.63-2.13,10.96Z"/><path class="cls-9" d="M295.12,332.71c.82,1.34-.6,3.43-2.14,3.63-3.96.4-3.59-7.63,2.14-3.63Z"/><path class="cls-9" d="M293.16,325.32c-1.61,1.55-4.08.85-3.76-2.05.45-3.99,5.95-.06,3.76,2.05Z"/><path class="cls-9" d="M362.95,337.37c-.55-.35-1.41-3.92,1.09-3.77,4.07.24,1.99,5.7-1.09,3.77Z"/><path class="cls-9" d="M360.53,328.27c-.36-.31-1.36-4.06,1.04-3.71,3.7.54,1.11,5.53-1.04,3.71Z"/><path class="cls-5" d="M257.33,301.87c-.2-.17-.72-3.6-.53-3.79,5.83-1.22,5.5,5.04.53,3.79Z"/><path class="cls-9" d="M255.84,292.32c-.44-.44-.35-5.83,2.86-3.1,2.94,2.5-2.07,3.87-2.86,3.1Z"/><path class="cls-5" d="M325.8,239.65c21.18-2.76,30.77,30.83,10.3,36.21-23.64,6.21-34.25-33.09-10.3-36.21ZM326.38,241.95c-6.73-.81-2.92,3.76-4.02,5.29-.63.88-2.95.25-3.16.44-.25.24.28,5.99.51,6.22.3.29,3.01-.24,3.31.05,3.9,18.21-2.68,4.43-.46,16.3,5.38-1.14,3.93-.52,5.58,3.88,3.8-.31,4.26-1.27,3.53-4.84,3.76-.41,1.82.54,2.47,2.57.39,1.21,3.61.95,4.45.36.97-.69-.49-2.99-.15-4.05,4.96-2.48,9-10.8,1.39-13.29,4.23-5.98-1.73-11.16-7.68-10.07-.22-.24.54-2.37-.78-2.82-4.48-1.51-2.63,3.85-3.06,4.26h-1.44s-.5-4.3-.5-4.3Z"/><path class="cls-5" d="M219.84,227.52l-.48,5.28-4.8-.48c.44,1.38-.73,5.56-.06,6.43.44.57,3.01.27,3.38.81.33.48-1.41,9.13-.99,10.69-.29,1.36-3.04.54-3.3.78-.42,9.01-.59,4.27,4.11,6.21.75,1.07-.58,4.27,1,4.78,3.92-.03,4.51-.14,4.49-4.27,6.65-.79-2.6,5.66,7.68,4.32-.28-6.09-.26-3.45,5.05-6.23,3.62-2.84,4.73-9.65-.25-11.54,2.95-2.32,3.63-5.41,1.81-8.76s-6.37-2.4-6.88-3.2c-.56-.87.33-2.9-1.16-3.63-2.85-1.41-4.38,1.04-3.37,3.6-3.53,1.26-1.19-4.09-1.92-4.8-.26-.26-2.86.53-3.36-.48,25.7-5.24,34.1,30.4,9.91,36.55s-36.13-28.75-10.87-36.07Z"/><path class="cls-18" d="M220.8,227.04c.5,1.01,3.1.22,3.36.48.72.71-1.61,6.06,1.92,4.8-1.02-2.56.51-5,3.37-3.6,1.49.73.6,2.76,1.16,3.63.51.8,5.11-.05,6.88,3.2s1.14,6.44-1.81,8.76c4.98,1.88,3.87,8.69.25,11.54-5.38,2.84-5.29.05-5.05,6.23-10.29,1.33-1.02-5.11-7.68-4.32.02,4.11-.56,4.26-4.49,4.27-1.58-.51-.25-3.71-1-4.78-4.7-1.94-4.53,2.8-4.11-6.21.26-.25,3,.57,3.3-.78-.42-1.56,1.32-10.21.99-10.69-.37-.54-2.94-.24-3.38-.81-.67-.87.5-5.06.06-6.43l4.8.48.48-5.28c.21-.06.49-.38.96-.48ZM223.2,228.48c-.59.09-2.75-.14-2.88,0-.17.17-.09,4.36-.52,4.76-.26.25-3.23-.09-3.81.86-1.18,5.92-.8,3.01,2.82,4.53.7,1.12-1.23,10.48-.96,12.59-2.17,2.65-4-2.14-3.29,4.14.9.86,5.84-1.37,4.31,5.29,4.43.42,2.23-.47,2.98-3.03.55-1.85,4.94-1.04,5.18-.81.19.18-.13,3.12,0,3.84h2.4c-.97-5.78,2.08-3.85,5.04-5.76,2.77-1.78,4.43-5.21,2.37-8.15-1.16-1.66-4.38-1.81-2.62-3.62s3.55-.68,2.77-5.16c-.85-4.9-5.75-3.15-7.6-4.41-1.21-.83.69-3.61-1.66-4.1-1.51-.31-.31,3.44-.71,3.82-5.88,1.11-3.88-.26-3.83-4.8Z"/><path class="cls-12" d="M258.36,432.85c-1.34-1.33,1.28-10.38,2.13-10.96,3.96-2.7,14.8,2.42,11.91,9.15-2.33,5.84-9.85,3.99-14.04,1.81ZM260.64,431.52c1.7-.11,3.55,1.35,5.08,1.42,2.68.12,5.68-2.42,4.8-5.27s-8.33-6.25-8.92-3.1c-.39,2.11-.27,4.76-.96,6.95Z"/><path class="cls-12" d="M262.16,412.24c-1.16-1.88,2.91-8.53,2.8-10.97,15.62.43,11.62,19.03-2.8,10.97ZM266.7,403.75c-.92.32-2.62,6.27-2.02,7.15.29.43,3.73,1.36,4.42,1.4,6.66.38,3.42-10.56-2.4-8.55Z"/><path class="cls-18" d="M326.38,241.95l.5,4.3h1.44c.43-.41-1.42-5.77,3.06-4.26,1.33.45.57,2.58.78,2.82,5.95-1.09,11.92,4.1,7.68,10.07,7.61,2.51,3.57,10.81-1.39,13.29-.33,1.06,1.13,3.36.15,4.05-.84.59-4.06.86-4.45-.36-.65-2.03,1.29-2.98-2.47-2.57.72,3.56.27,4.52-3.53,4.84-1.65-4.39-.2-5.01-5.58-3.88-2.23-11.81,4.35,1.84.46-16.3-.3-.3-3.01.24-3.31-.05-.23-.22-.75-5.98-.51-6.22.21-.2,2.53.43,3.16-.44,1.1-1.53-2.71-6.1,4.02-5.29ZM325.44,242.88c-4.53-.54-.93,4.2-1.94,5.26-4.61.33-3.4.88-2.83,4.8.3.29,3.01-.24,3.31.05.43.42,1.6,11.5,1.25,12-2.61,1.08-2.43,1.04-1.65,3.76,4.12.15,4.14-.67,4.77,3.88,3.85.51,1.61-2.06,2.09-3.85.41-.55,3.82-1.35,4.39-.48,1.04,1.56-1.41,3.55,2.62,2.91-.81-6-.69-3.36,3.85-6.95,3.44-5.19.35-7.35-3.36-9.14-.58-1.31.95-1.23,1.38-1.94,1.37-2.26.24-5.93-2.33-6.71-1.48-.45-4.64.09-5.24-.28-1.31-1.9.91-3.89-2.47-3.29-.56.55,2.18,5.18-3.36,4.32l-.48-4.32Z"/><path class="cls-5" d="M223.2,228.48c-.05,4.57-2.05,5.9,3.83,4.8.4-.38-.8-4.14.71-3.82,2.35.49.45,3.27,1.66,4.1,1.85,1.26,6.75-.49,7.6,4.41.78,4.48-1.09,3.44-2.77,5.16-1.76,1.81,1.46,1.96,2.62,3.62,2.06,2.93.4,6.36-2.37,8.15-2.97,1.91-6.01-.02-5.04,5.76h-2.4c-.13-.72.19-3.66,0-3.84-.24-.23-4.63-1.04-5.18.81-.75,2.55,1.45,3.44-2.98,3.03,1.53-6.65-3.42-4.42-4.31-5.29-.7-6.29,1.12-1.49,3.29-4.14-.27-2.11,1.66-11.46.96-12.59-3.65-1.51-3.99,1.36-2.82-4.53.58-.95,3.55-.61,3.81-.86.43-.4.35-4.59.52-4.76.14-.14,2.29.1,2.88,0ZM224.95,237.18c-2.22,3.44-1.75,7.46,3.54,5.94,2.37-1.17.77-7.4-3.54-5.94ZM224.23,247.27c-3.65,9.44,6.99,7.58,6.17,2.6-.37-2.2-4.69-3.52-6.17-2.6Z"/><path class="cls-11" d="M260.64,431.52c.7-2.2.57-4.84.96-6.95.59-3.15,8.06.32,8.92,3.1s-2.13,5.39-4.8,5.27c-1.53-.07-3.38-1.53-5.08-1.42Z"/><path class="cls-11" d="M266.7,403.75c5.83-2.01,9.06,8.92,2.4,8.55-.69-.04-4.13-.97-4.42-1.4-.6-.88,1.1-6.84,2.02-7.15Z"/><path class="cls-5" d="M325.44,242.88l.48,4.32c5.55.86,2.8-3.77,3.36-4.32,3.34-.61,1.17,1.39,2.47,3.29.59.37,3.76-.17,5.24.28,2.56.78,3.7,4.46,2.33,6.71-.43.7-1.96.62-1.38,1.94,3.69,1.78,6.8,3.99,3.36,9.15-4.6,3.64-4.64.9-3.85,6.95-4.03.64-1.58-1.34-2.62-2.91-.57-.87-3.98-.07-4.39.48-.49,1.77,1.75,4.37-2.09,3.85-.63-4.61-.68-3.7-4.77-3.88-.78-2.75-.96-2.67,1.65-3.76.35-.49-.82-11.58-1.25-12-.3-.3-3.01.24-3.31-.05-.54-3.88-1.84-4.46,2.83-4.79,1.01-1.06-2.59-5.8,1.94-5.26ZM328.39,250.63c-.45,3.73.85,7.22,4.98,4.26,2.15-3.62-3.72-6.25-4.98-4.26ZM330.84,264.84c2.1,2.42,8.24-1.82,4.67-4.9-5.12-2.53-6.38.49-4.67,4.9Z"/><path class="cls-18" d="M224.23,247.27c1.49-.93,5.8.39,6.17,2.6.81,4.99-9.82,6.84-6.17-2.6ZM225.12,252.48c5.82.9,5.44-4.56,0-4.32v4.32Z"/><path class="cls-18" d="M224.95,237.18c4.31-1.46,5.91,4.77,3.54,5.94-5.3,1.52-5.76-2.51-3.54-5.94ZM228.42,241.86c.97-3.96-4.61-5.84-3.23,0,.63.55,2.86.59,3.23,0Z"/><path class="cls-18" d="M330.84,264.84c-1.72-4.42-.45-7.43,4.67-4.9,3.57,3.08-2.57,7.32-4.67,4.9ZM334.92,260.76c-.76-.75-2.7-.59-3.72-.59.67,2.43-.5,4.51,2.62,3.82,1.67-.37,2.26-2.09,1.1-3.23Z"/><path class="cls-18" d="M328.39,250.63c1.26-1.99,7.12.64,4.98,4.26-4.13,2.97-5.43-.54-4.98-4.26ZM332.57,254.34c1.72-2.75-5.06-5.93-2.79.52.26.22,2.61-.24,2.79-.52Z"/><path class="cls-9" d="M225.12,252.48v-4.32c5.44-.24,5.82,5.23,0,4.32Z"/><path class="cls-9" d="M228.42,241.86c-.37.58-2.59.54-3.23,0-1.38-5.84,4.2-3.94,3.23,0Z"/><path class="cls-9" d="M334.92,260.76c1.16,1.14.57,2.86-1.1,3.23-3.12.68-1.95-1.4-2.62-3.82,1.02,0,2.96-.15,3.72.59Z"/><path class="cls-9" d="M332.57,254.34c-.18.28-2.53.74-2.79.52-2.26-6.46,4.51-3.27,2.79-.52Z"/></g></g></svg>