<svg width="203" height="345" viewBox="0 0 203 345" fill="none" xmlns="http://www.w3.org/2000/svg">
<path opacity="0.3" d="M143.775 297.528C143.496 299.062 144.471 298.444 145.346 298.625C152.635 300.138 159.964 301.544 167.025 304.037C227.616 329.317 129.723 345.542 110.162 344.562C84.3964 345.734 54.5631 344.413 29.3937 338.064C-23.461 324.513 4.68173 303.59 41.2276 298.55C40.2232 300.33 41.0983 306.37 40.1834 307.659C33.5505 309.183 28.3992 324.886 38.1746 325.578C48.4174 326.867 64.3285 326.484 74.2232 323.437C80.2794 321.572 77.306 318.813 76.9878 313.614C76.5502 306.295 80.0407 301.086 78.8872 294.971L105.121 293.948C109.258 302.854 104.743 304.825 109.377 313.657C110.023 318.014 106.533 323.064 112.241 324.896C118.536 326.931 135.272 327.251 142.015 326.59C148.757 325.93 155.847 322.904 151.293 314.222C145.644 305.39 138.594 311.643 143.745 297.528H143.775Z" fill="black"/>
<path d="M28.3612 221.9C25.348 238.722 34.3776 252.283 39.2205 266.729C40.752 271.406 39.7675 272.631 39.857 276.775C42.2834 285.959 43.7552 296.878 42.1939 306.722C47.5042 306.52 62.6994 314.03 66.4683 317.258C75.1896 325.44 37.9079 321.264 34.5665 321.04C36.3665 327.72 70.2472 323.181 75.8359 320.55C75.3387 312.667 75.3089 305.593 77.8945 298.285C77.8646 296.324 75.9652 293.501 76.5619 291.2C80.122 281.037 85.6611 270.501 87.0234 260.231C87.5306 260.178 87.9284 260.231 87.9781 260.231C87.6002 265.259 86.2279 270.085 84.6467 274.805C82.8965 281.015 75.5476 289.613 78.9187 294.982C80.0723 301.097 76.5818 306.306 77.0193 313.625C77.3276 318.824 80.301 321.583 74.2548 323.448C64.3501 326.495 48.449 326.867 38.2062 325.589C28.4208 324.897 33.582 309.183 40.215 307.67C41.1298 306.381 40.2547 300.341 41.2591 298.562C42.3132 291.988 39.0813 285.192 38.4448 279.343C37.9178 274.474 38.9321 271.481 37.1919 266.378C32.2296 251.836 23.3691 238.21 26.9391 221.399C27.6352 221.293 27.8938 221.357 28.3711 221.911L28.3612 221.9ZM65.5634 319.506C64.7877 315.98 47.2755 309.534 44.3618 308.746C38.6238 308.384 35.0041 312.805 34.5267 318.664C44.2226 321.626 55.4399 320.326 65.5634 319.495V319.506Z" fill="#121111"/>
<path d="M11.1969 74.714C12.0919 74.3304 11.9526 73.0201 12.8476 72.1572C14.9459 70.1011 17.5315 71.8908 17.7602 74.5861C17.9193 76.3759 14.399 87.9987 13.3349 87.9987C10.64 84.9092 2.15735 77.8247 5.04124 72.9881C6.58263 70.3994 10.7195 71.8482 11.1969 74.7246V74.714Z" fill="#FA3868"/>
<path d="M199.096 85.9638C201.463 84.6428 203.521 86.2408 202.686 89.032L192.89 94.657C192.801 91.9936 193.01 83.439 196.013 82.9063C198.201 82.5122 199.315 83.6627 199.096 85.9745V85.9638Z" fill="#FA3868"/>
<path d="M178.59 121.738L178.113 122.249C176.591 119.106 171.162 121.961 169.054 123.272L168.576 122.249C171.221 120.395 177.218 117.103 178.59 121.738Z" fill="#221212"/>
<path d="M25.9734 217.809L25.4961 216.786C25.5259 216.871 25.8044 217.34 25.9734 217.809Z" fill="#121111"/>
<path d="M26.9293 219.854C26.4221 219.471 26.1834 218.917 25.9746 218.32C26.6608 218.544 26.9293 219.098 26.9293 219.854Z" fill="#121111"/>
<path d="M85.1143 122.76C66.8264 117.178 50.6866 96.9792 53.6401 75.7471C50.5573 76.1093 53.9086 91.7484 54.5848 94.6568C54.1672 93.6554 46.0326 82.2776 47.037 81.2442C51.0545 68.6839 60.2034 56.358 68.3877 46.8233C68.5468 45.7154 64.9469 44.9164 63.8033 44.16C51.8004 34.7531 63.2266 15.364 63.2663 3.01679C64.2409 -0.275091 66.906 5.33921 67.4728 5.97841C72.2064 11.3797 79.794 9.8882 82.9663 18.5067C86.3275 27.6473 81.4845 34.3376 79.8735 43.0307C82.5088 42.7324 83.6226 34.572 85.1342 33.6025C101.751 27.0614 121.153 32.3241 132.798 46.3652C133.404 47.878 129.974 45.8539 128.76 46.0882C124.703 46.8659 130.173 50.5094 130.332 50.797C130.451 55.1116 124.136 61.8871 122.505 65.5092C121.302 69.6747 128.303 74.6072 131.843 74.735L130.173 77.2705C133.792 74.8522 137.034 72.3807 141.38 71.6562C139.789 82.4587 161.418 97.8847 169.99 94.1454C173.839 101.198 168.19 104.17 165.794 109.316C164.809 111.425 164.928 114.397 162.979 115.505C160.811 116.73 153.602 114.099 150.628 113.641C134.28 111.702 112.352 111.947 104.685 92.8564C104.347 91.5993 106.505 92.2171 107.251 91.6525L107.529 90.0758C105.66 90.3848 100.697 90.0013 99.9017 87.7641C99.5437 86.752 102.587 86.3791 101.801 84.4509C99.2951 84.7705 98.0023 87.7001 95.1283 87.0077C95.1681 89.6817 97.3957 87.9132 98.1912 88.105C98.6685 88.2222 99.1061 89.4899 99.7326 89.9906C100.498 90.6191 102.328 91.3542 102.646 91.7165C109.389 116.912 139.381 113.929 158.077 117.913C148.013 128.066 133.524 129.6 121.839 121.748C124.335 125.317 128.85 127.363 132.808 128.396C120.377 132.487 119.612 131.677 108.593 125.978C76.572 122.995 53.3318 102.402 66.1701 65.9141C67.9303 62.0043 70.8241 50.6585 74.6328 49.4227C70.118 42.9348 76.0648 36.3937 76.8902 29.8845C77.8548 22.2354 74.3047 10.847 66.5281 9.32356C66.5381 11.3583 70.3567 12.2958 70.3468 14.1708C65.7922 22.3206 55.5992 39.9945 70.7744 43.1053C70.4562 48.9966 74.4041 47.8034 69.7899 53.4497C55.8975 76.3011 57.777 113.3 85.6115 122.27L85.1342 122.782L85.1143 122.76ZM109.438 47.1216C110.393 36.9264 88.5153 44.16 87.9783 53.2473C94.6908 49.8169 101.781 46.3865 109.438 47.1216ZM101.204 55.9319C96.5802 56.6563 89.9473 63.6769 90.8423 68.8224C91.2898 71.4005 101.095 76.1413 103.452 75.7471C105.172 75.4595 105.421 73.1157 105.858 71.6456C107.479 66.2656 109.796 54.5896 101.204 55.9319ZM141.867 93.112C140.028 86.784 131.217 80.2854 125.21 84.7172C122.694 86.5389 120.904 91.0027 123.261 93.6234C123.43 83.4068 131.833 82.9275 137.83 88.9999C138.327 89.5112 141.111 93.9856 141.857 93.112H141.867ZM128.989 90.5552C131.525 90.3635 134.399 92.8777 135.214 95.3919C135.722 96.9472 135.314 98.5985 136.378 99.7491C139.411 95.5623 132.41 87.2314 128.512 89.2875C127.388 89.8841 127.1 91.7591 128.283 92.6007L128.989 90.5552ZM169.523 100.271C167.892 100.005 164.839 101.56 164.491 103.307C164.421 103.648 165.416 105.853 164.759 106.908C165.764 108.186 167.832 101.89 168.061 101.603C168.628 100.868 169.891 101.912 169.533 100.271H169.523Z" fill="#7D7E7E"/>
<path d="M115.165 132.466C122.225 135.065 130.757 131.613 136.973 129.003C141.199 128.076 144.023 128.332 148.548 126.585C149.702 126.138 151.77 124.294 152.854 125.03C154.366 126.063 156.911 135.672 159.049 137.324L155.708 138.336C153.769 141.532 157.916 141.457 159.308 142.671C161.496 145.314 162.182 151.311 164.678 153.783C165.255 155.988 164.479 159.589 165.732 162.103C163.514 160.058 161.605 158.918 158.562 159.791C156.563 160.793 150.268 164.926 150.945 167.728C145.605 169.784 139.628 173.641 139.489 181.013C130.738 170.402 145.247 149.01 149.025 138.091C145.068 142.906 141.955 149.394 139.966 155.466C138.335 153.154 142.263 142.618 141.875 138.602C139.777 140.765 140.414 145.314 139.499 148.307C138.126 155.466 134.497 169.529 135.203 176.166C138.783 187.256 140.065 179.053 140.105 192.891C140.881 201.67 148.369 214.709 144.262 222.667C108.949 239.926 65.6711 234.13 32.6754 219.088C65.1241 239.606 110.033 240.917 144.511 224.478C150.249 239.777 78.3304 241.407 69.1616 238.253C43.7038 236.794 19.2206 224.063 25.048 192.263C35.2113 195.789 44.8972 190.75 54.4239 187.714C66.6158 188.8 77.1271 188.939 83.0341 174.962L112.798 180.256C105.767 183.559 98.4977 184.965 90.8604 185.626C90.7211 185.817 91.4869 186.638 91.5764 186.638C101.401 187.692 109.049 183.996 117.372 180.001C120.306 179.628 126.292 182.568 127.824 178.467C129.166 174.855 129.723 163.914 130.38 159.227C130.708 152.036 135.103 142.256 132.329 135.811C130.399 134.628 118.357 133.424 115.184 132.977V132.466H115.165ZM111.823 210.15C90.8007 215.295 70.1759 209.34 49.8296 204.013C57.6459 210.81 104.385 218.822 111.823 210.15Z" fill="#8B7CD6"/>
<path d="M28.3608 221.9C51.422 250.078 113.475 245.295 143.517 232.639C150.2 251.218 146.024 275.242 142.672 294.567C141.907 298.871 139.182 304.538 141.389 308.267C133.215 307.489 126.92 309.215 120.874 315.16C119.462 316.555 115.076 320.646 118.706 321.072C129.237 321.925 140.077 321.584 150.439 320.028C148.39 327.922 117.523 324.535 111.327 322.34C110.084 319.762 111.536 317.056 111.288 314.212C111.039 311.367 109.1 309.247 108.931 306.989C108.712 304.24 110.233 301.044 109.11 298.146L91.3191 259.464C96.1819 257.983 105.848 255.341 108.483 251.037C98.3598 255.916 86.5557 259.741 75.5671 259.965C73.8169 261.936 85.5712 260.231 87.0231 260.231C87.8883 260.583 87.0728 261.808 86.9038 262.394C83.9602 272.44 80.42 281.559 76.5615 291.2C75.9649 293.501 77.8643 296.325 77.8941 298.285C75.3185 305.55 75.3384 312.699 75.8356 320.55C70.4258 323.15 36.3064 327.731 34.5662 321.04C37.7882 321.264 75.2091 325.44 66.4679 317.258C62.6791 314.02 47.5337 306.541 42.1935 306.722C43.7648 296.868 42.293 285.959 39.8566 276.776C39.7671 272.632 40.7616 271.406 39.2301 266.73C34.3872 252.294 25.3477 238.701 28.3708 221.9H28.3608ZM135.671 294.982C128.71 295.59 122.047 294.886 115.792 291.488C115.424 291.349 114.142 290.455 114.221 291.658C114.44 294.791 132.748 298.999 135.671 296.506V294.982ZM46.9669 300.597C50.5568 300.703 56.3147 300.724 59.8449 299.318C61.2173 299.031 76.1638 293.374 72.4744 291.893C70.4358 292.191 64.837 295.717 62.1222 296.644C58.9499 298.711 46.8774 297.741 46.9669 300.586V300.597Z" fill="#7E7E7E"/>
<path d="M41.2376 148.818C37.6277 154.092 33.8787 161.549 35.0422 168.74L38.4332 157.309L43.9027 149.362C48.4075 151.918 51.7687 155.913 57.447 154.955C56.8901 157.266 54.5432 161.144 56.2537 163.115C59.3961 156.244 60.2414 148.552 69.3903 150.075C74.0343 150.842 83.9689 156.031 79.4342 162.305L76.0431 162.614C75.7945 162.38 78.3502 156.712 76.0431 155.977C76.779 160.942 70.2654 164.255 74.7305 168.932L76.5105 168.751L75.0884 163.648C84.0782 164.575 82.0396 174.802 77.4552 180.235C69.2809 189.93 60.848 183.836 51.3411 186.499C44.8275 188.321 38.8907 192.753 31.4522 191.229C11.9313 179.425 19.4095 151.013 41.2177 148.829L41.2376 148.818Z" fill="#7E7E7E"/>
<path d="M168.935 92.4722C161.755 94.0595 150.418 85.2386 145.695 79.5603C139.648 71.549 143.994 71.7514 149.245 67.0427C157.857 59.319 164.808 48.9959 168.447 37.5436C170.138 33.5912 169.531 25.1751 173.101 23.8008C184.229 37.8312 176.005 76.7691 168.925 92.4722H168.935Z" fill="#F086A9"/>
<path d="M129.466 151.886L126.184 178.253L125.319 178.882C111.158 178.253 97.1067 176.303 83.2342 173.331C83.791 169.901 82.1502 165.405 80.4895 163.392C84.875 156.978 80.4099 153.569 75.0996 150.576L76.0642 138.101L102.626 164.084C112.003 161.208 120.804 156.573 129.466 151.897V151.886Z" fill="#FBFCFC"/>
<path d="M132.329 137.579L130.311 149.213C121.341 153.197 112.858 158.801 103.5 161.613C97.9714 155.093 72.7324 138.41 76.1035 129.973C94.8886 131.698 113.684 134.554 132.329 137.579ZM106.583 145.25C104.773 139.518 99.9205 142 99.9006 147.551C99.9006 149.234 102.148 157.053 103.53 157.49C105.818 157.554 110.849 150.843 111.734 148.968C112.401 145.569 109.288 143.098 106.583 145.26V145.25Z" fill="#FBFCFC"/>
<path d="M169.521 168.751L170.486 170.786C169.611 171.063 168.228 170.924 168.586 172.32C184.1 171.041 180.102 201.691 170.824 207.167C157.677 213.154 145.704 204.77 165.484 201.435C166.319 201.307 166.289 201.702 166.2 200.423C163.375 199.496 159.716 201.638 157.369 201.489C152.526 201.19 153.61 187.714 155.589 186.617C158.234 184.582 166.906 185.253 168.109 181.514C167.671 180.118 153.153 187.938 155.927 182.504C158.015 176.89 168.159 176.187 171.45 173.343L166.677 173.843C167.751 172.65 167.781 168.346 169.531 168.74L169.521 168.751Z" fill="#7C7D7D"/>
<path d="M136.378 43.0518C143.06 49.0815 143.707 60.0012 144.691 68.7796L143.916 69.5146C140.276 68.8967 135.443 73.2859 132.648 73.1581C128.969 72.9983 124.782 70.3776 123.848 66.3719C128.78 59.0531 132.718 51.1589 136.388 43.0518H136.378Z" fill="#EE85A8"/>
<path d="M189.481 142.607C175.101 142.096 178.174 156.275 172.844 155.263C168.747 154.358 167.643 148.903 168.14 145.036C169.244 136.364 179.736 137.419 185.513 134.521C188.924 132.806 189.7 129.631 194.046 131.506C200.808 134.425 189.441 138.143 189.491 142.618L189.481 142.607Z" fill="#FA1E1E"/>
<path d="M152.835 167.216C157.022 171.211 162.054 167.035 166.181 165.938C165.305 166.694 164.739 169.645 164.152 170.156C163.665 170.582 158.394 171.605 156.624 172.564C154.854 173.523 152.248 175.792 151.194 177.475C149.374 181.374 145.884 191.239 146.63 195.841C135.641 188.895 141.329 169.421 152.835 167.227V167.216Z" fill="#7B7C7C"/>
<path d="M150.926 318.483C140.763 319.133 130.56 320.198 120.406 318.995C126.154 309.066 147.684 304.293 150.926 318.483Z" fill="#ADAEAE"/>
<path d="M150.448 27.1992L141.379 46.6096C140.415 45.7786 139.917 44.3617 139.022 43.2644C137.879 41.8689 136.864 42.6146 137.073 40.2496C138.107 33.4527 142.592 33.7191 142.811 31.2901C136.099 29.1488 131.057 33.6658 131.365 40.9953C126.114 38.3852 124.822 34.859 129.446 29.9904C135.751 25.4627 143.348 31.9932 150.448 27.1992Z" fill="#7B7B7B"/>
<path d="M71.7372 40.4521C57.815 40.2817 67.6799 21.7555 71.5184 14.9268C77.5149 22.7676 74.462 32.0893 71.7372 40.4521Z" fill="#ADAEAE"/>
<path d="M163.803 171.818C163.435 172.617 163.504 174.887 163.246 175.302C162.629 176.303 154.942 177.465 154.276 182.845C154.733 186.2 154.276 186.275 152.953 189.577C152.098 193.391 151.879 200.582 155.698 202.489C152.188 205.813 153.431 210.437 158.075 211.172C148.528 213.292 145.664 193.775 149.224 186.605C151.273 178.562 155.867 173.289 163.803 171.818Z" fill="#797979"/>
<path d="M177.159 154.443C176.195 146.261 192.086 138.74 194.125 147.806C195.706 156.147 181.605 150.533 177.159 154.443Z" fill="#F81E1E"/>
<path d="M170.486 137.068C170.089 139.529 168.09 140.338 167.374 142.671L166.678 147.796C165.643 143.407 164.4 138.719 159.985 137.334C158.195 135.587 156.594 130.782 158.543 128.609C160.701 126.212 162.72 130.804 164.41 131.571C168.418 132.487 171.192 131.049 170.486 137.068Z" fill="#F61E1E"/>
<path d="M171.432 137.578C171.452 136.055 171.392 134.5 171.432 132.976C176.603 126.307 182.331 122.674 187.651 131.687C182.938 135.416 176.712 135.235 171.432 137.578Z" fill="#F81E1E"/>
<path d="M184.308 169.252C179.754 171.052 170.804 174.067 169.988 166.471C174.294 160.132 182.389 161.294 184.308 169.252Z" fill="#006537"/>
<path d="M178.115 122.248C178.284 122.589 178.721 125.497 178.532 125.764C175.967 126.733 172.208 129.247 171.432 132.475C169.314 131.389 167.852 129.94 165.227 130.43C163.645 124.784 174.982 117.923 178.105 122.248H178.115Z" fill="#F61E1E"/>
<path d="M151.881 167.217C151.841 166.055 152.537 165.853 153.163 165.267C157.579 161.102 161.676 157.714 165.713 164.649C159.707 167.089 158.653 168.175 151.881 167.217Z" fill="#006537"/>
<path d="M168.578 153.932C161.547 153.697 164.202 140.956 156.654 140.135C157.072 138.74 159.946 138.868 161.09 139.23C164.799 141.691 165.783 150.203 168.578 153.942V153.932Z" fill="#F61E1E"/>
<path d="M140.433 32.3136C135.014 36.9585 135.809 44.0323 133.552 44.043C129.355 42.1467 134.606 30.5558 140.433 32.3136Z" fill="#A6A6A6"/>
<path d="M174.295 157C172.495 159.6 170.685 162.284 169.273 165.161C167.364 168.176 167.414 174.248 164.281 174.876C164.778 167.867 170.447 162.987 170.964 155.967L174.295 156.99V157Z" fill="#006537"/>
<path d="M109.437 24.6432C109.388 25.2398 109.696 25.7405 109.139 26.2092C105.629 28.8832 102.586 28.9684 98.4688 28.7234C101.293 24.6751 104.972 24.249 109.437 24.6432Z" fill="#121111"/>
<path d="M162.371 211.172C161.307 212.653 162.858 220.834 160.71 220.366C159 219.993 160.77 212.887 160.929 211.513L162.361 211.172H162.371Z" fill="#006537"/>
<path d="M140.435 148.307H139.48C140.395 145.303 139.759 140.764 141.857 138.602C141.738 141.883 140.932 145.089 140.435 148.307Z" fill="#2F2946"/>
<path d="M176.682 127.351L171.432 132.976C171.491 130.281 174.345 128.203 176.205 126.84L176.682 127.351Z" fill="#221212"/>
<path d="M102.755 22.0865C102.288 25.3251 99.2148 24.3876 97.037 25.144C96.7685 23.6632 97.4447 24.3343 98.0812 23.9934C98.7673 23.6312 102.437 21.7669 102.755 22.0865Z" fill="#121111"/>
<path d="M146.163 144.215L145.686 143.193C146.62 141.552 147.277 139.112 149.017 138.079C148.679 140.327 147.058 142.308 146.163 144.215Z" fill="#2F2946"/>
<path d="M91.7856 27.7108C92.1535 29.4367 88.136 31.3223 87.4995 30.7683C87.2211 29.4686 87.8277 29.8735 88.3945 29.4473C88.9116 29.0638 91.4077 27.3167 91.7856 27.7108Z" fill="#121111"/>
<path d="M47.4431 126.841H46.9658C47.0951 125.381 46.3493 122.995 47.9105 122.238C48.4177 123.762 47.4829 125.871 47.4431 126.841Z" fill="#2F2946"/>
<path d="M21.2096 143.705C20.5732 143.907 17.0926 145.931 16.9236 145.75C16.8241 144.237 18.7732 143.737 19.7776 143.193L21.2096 143.705Z" fill="#2F2946"/>
<path d="M150.925 167.728C150.229 168.058 147.782 169.741 147.106 170.284L146.629 169.773C147.912 168.963 150.746 167.909 150.925 167.728Z" fill="#2F2946"/>
<path d="M98.4696 126.34C96.3315 126.223 93.6267 126.862 91.7969 125.829C93.9449 125.967 96.6398 125.296 98.4696 126.34Z" fill="#8B7CD6"/>
<path d="M85.5906 122.249L89.3993 123.772C87.7486 124.167 86.4458 123.176 85.1133 122.76L85.5906 122.249Z" fill="#4E4236"/>
<path d="M171.431 134.511C171.431 135.533 171.431 136.556 171.431 137.579L170.477 137.068C170.576 136.46 170.536 135.161 170.477 134.511H171.431Z" fill="#221212"/>
<path d="M64.5971 47.6328H63.6523V48.6449H64.5971V47.6328Z" fill="#121111"/>
<path d="M89.8859 125.828L87.9766 125.316C88.7025 125.434 89.7864 125.817 89.8859 125.828Z" fill="#8B7CD6"/>
<path d="M107.05 127.863C106.473 127.756 105.479 128.193 105.141 127.352C105.837 127.394 106.503 127.202 107.05 127.863Z" fill="#8B7CD6"/>
<path d="M95.1283 25.666H94.1836V26.6781H95.1283V25.666Z" fill="#121111"/>
<path d="M57.9252 53.2578H56.9805V54.2699H57.9252V53.2578Z" fill="#121111"/>
<path d="M103.719 127.351C103.202 127.33 102.516 127.511 102.287 126.84C102.794 126.904 103.48 126.648 103.719 127.351Z" fill="#8B7CD6"/>
<path d="M87.023 125.317L86.0684 124.806C86.8241 124.965 86.9733 125.306 87.023 125.317Z" fill="#8B7CD6"/>
<path d="M100.855 126.84L99.9004 126.329C100.746 126.393 100.805 126.83 100.855 126.84Z" fill="#8B7CD6"/>
<path d="M85.1129 124.805C84.7051 124.752 84.2974 124.805 84.1582 124.294C84.5261 124.4 84.9339 124.305 85.1129 124.805Z" fill="#8B7CD6"/>
<path d="M194.373 130.228C192.036 129.258 189.182 130.441 188.615 130.185C186.606 129.29 183.772 123.197 179.556 124.784C179.794 123.218 179.128 122.739 178.581 121.737L178.104 122.248C178.273 122.589 178.71 125.498 178.521 125.764C178.442 125.881 176.722 126.478 176.195 126.851L176.672 127.362C181.306 124.752 185.184 127.309 187.641 131.698C182.927 135.427 176.702 135.246 171.421 137.589L170.466 137.078C170.069 139.539 168.07 140.348 167.354 142.682L166.658 147.806C165.753 145.1 165.136 140.594 162.819 138.878C159.11 138.026 155.997 132.167 158.523 128.619C160.681 126.222 162.7 130.814 164.39 131.581C166.767 132.657 170.099 130.739 170.466 134.521H171.421C171.401 133.85 171.401 133.126 171.421 132.476C169.303 131.389 167.841 129.94 165.216 130.43C164.878 126.829 166.29 124.965 169.034 123.271L168.557 122.248C165.614 124.102 163.853 125.136 164.261 129.408C160.771 125.913 159.279 124.805 156.166 129.408L153.81 124.091C157.439 120.97 160.313 118.2 164.53 116.144C165.991 114.525 165.892 112.607 166.737 110.839C169.343 105.374 176.543 101.229 171.063 93.7615C176.751 74.66 183.991 46.2369 177.05 26.5389C175.906 23.5347 173.122 20.4239 170.536 23.9502C166.777 40.0261 159.319 57.1992 146.381 67.5756C145.585 60.9066 144.641 54.3335 142.403 48.016C144.303 45.619 154.496 24.8344 153.302 23.6306C150.22 23.9608 148.3 26.2193 144.909 26.6348C136.785 26.4643 125.15 22.7144 124.692 35.8925C119.402 32.345 113.346 29.7349 107.051 29.2449L114.658 25.644L114.469 24.11C111.715 22.8316 108.582 23.1299 105.619 23.1192C105.659 20.882 108.96 21.0631 108.473 18.5276C106.593 16.5887 88.7828 26.8053 86.058 28.7442C86.5553 21.9367 85.7299 15.7791 80.3102 11.1449C77.3169 8.84374 72.4242 7.7571 69.6796 5.15769C67.631 3.21878 67.0144 -0.531201 63.4344 0.118653C60.3517 0.68328 60.5307 8.2578 59.8942 11.1768C57.2291 23.556 49.3531 37.3947 62.6787 46.8761C59.3373 48.3889 46.7278 60.8853 57.4081 56.038C57.8755 55.8995 58.5119 55.4521 58.3827 56.3257C57.6965 56.1978 57.6368 56.5494 57.3584 57.0394C52.8436 64.582 48.0206 73.0727 45.5543 81.5421C41.9246 82.5435 40.7412 88.0406 41.4572 91.6201C15.4525 109.582 -15.962 173.832 23.8556 192.23C22.4037 201.2 22.702 208.285 25.4864 216.786C25.566 216.925 26.0931 217.862 25.9638 218.32C27.2168 218.629 26.8787 220.376 26.9184 221.388C51.3818 249.108 112.113 246.104 143.507 232.638C150.19 251.196 146.013 275.262 142.662 294.566C141.896 298.87 139.171 304.538 141.379 308.266C133.205 307.489 126.91 309.214 120.864 315.159C119.451 316.555 115.066 320.646 118.696 321.072C129.227 321.924 140.056 321.583 150.428 320.028C148.499 327.89 117.413 324.555 111.317 322.339C110.074 319.761 111.526 317.055 111.277 314.211C111.038 311.42 109.089 309.246 108.92 306.988C108.702 304.239 110.223 301.043 109.099 298.146L91.3087 259.463C96.1914 257.972 105.828 255.351 108.473 251.037C98.3394 255.926 86.5553 259.74 75.5567 259.964C73.2397 262.116 89.1508 259.953 90.3441 259.719C93.9241 271.672 100.229 282.581 105.132 293.959C108.373 301.48 106.573 299.989 107.021 306.977C107.19 309.63 109.07 311.516 109.388 313.668C110.034 318.014 106.554 323.074 112.252 324.907C118.547 326.942 135.283 327.261 142.025 326.601C157.578 325.546 154.635 312.517 143.109 307.691C140.454 305.422 143.159 300.575 143.756 297.538C147.624 276.935 151.98 251.9 144.85 231.861C146.52 229.453 148.579 227.29 146.282 223.114C147.972 214.006 144.293 203.32 141.846 194.308L146.371 197.887C147.047 205.27 150.946 215.337 159.488 212.717C158.692 214.986 157.37 220.973 160.313 221.836C164.241 222.986 162.491 213.42 163.515 211.14C171.103 209.574 175.389 207.71 177.955 199.528C180.431 191.623 182.4 180.064 176.662 173.363L186.676 169.773C185.88 166.375 182.111 160.174 177.855 160.537C175.906 160.483 174.275 161.676 172.376 161.346C173.758 160.579 175.101 157.074 176.085 156.499C176.97 155.977 182.221 154.027 183.175 153.963C191.151 156.499 201.782 149.819 191.658 142.692C190.465 138.825 204.158 134.436 194.363 130.228H194.373ZM57.9252 54.2802H56.9805V53.2681H57.9252V54.2802ZM150.926 318.483C140.762 319.133 130.559 320.198 120.406 318.994C126.154 309.065 147.684 304.303 150.926 318.483ZM161.089 139.219C164.798 141.67 165.793 150.203 168.577 153.931C161.546 153.697 164.202 140.956 156.654 140.135C157.071 138.74 159.935 138.868 161.089 139.23V139.219ZM170.407 155.7C169.601 158.182 169.174 161.346 167.155 163.125L165.723 154.443C166.717 155.039 170.238 154.624 170.407 155.7ZM149.245 67.0429C157.857 59.3192 164.808 48.9962 168.448 37.5438C170.138 33.6021 169.542 25.1433 173.102 23.801C184.23 37.8421 175.996 76.8014 168.925 92.4724C161.745 94.0491 150.409 85.2601 145.695 79.5606C139.649 71.5493 143.994 71.7517 149.245 67.0429ZM144.7 68.7794L143.925 69.5145C140.285 68.8966 135.452 73.2858 132.658 73.1579C128.978 72.9981 124.792 70.3774 123.857 66.3717C128.789 59.0529 132.727 51.1588 136.397 43.0516C143.08 49.0814 143.726 60.0011 144.71 68.7794H144.7ZM140.434 32.313C138.525 34.6141 137.073 36.0311 135.91 38.9501C135.591 39.7597 135.154 44.4152 133.563 44.0317C129.366 42.1354 134.617 30.5446 140.444 32.3024L140.434 32.313ZM129.446 29.9799C135.77 25.4523 143.328 31.9828 150.448 27.1994L141.379 46.6098C140.414 45.7788 139.917 44.3619 139.022 43.2647C137.879 41.8691 136.864 42.6148 137.073 40.2498C138.077 33.4955 142.682 33.6234 142.811 31.2903C136.098 29.149 131.057 33.666 131.365 40.9955C126.104 38.3854 124.831 34.8485 129.446 29.9906V29.9799ZM109.437 24.6426C109.388 25.2392 109.696 25.7399 109.139 26.2087C105.639 28.8827 102.586 28.9679 98.4687 28.7229C101.293 24.6746 104.972 24.2485 109.437 24.6426ZM103.481 21.5745C103.789 21.7449 103.789 21.9154 103.481 22.0858V21.5745ZM98.0908 23.9928C98.777 23.6306 102.447 21.7662 102.765 22.0858C102.297 25.3245 99.2245 24.387 97.0467 25.1433C96.7782 23.6625 97.4544 24.3337 98.0908 23.9928ZM94.1827 25.6654H95.1274V26.6774H94.1827V25.6654ZM88.395 29.4473C88.9121 29.0638 91.4082 27.3166 91.786 27.7108C92.154 29.4366 88.1364 31.3223 87.5 30.7683C87.2215 29.4686 87.8282 29.8734 88.395 29.4473ZM47.0361 81.2331C51.0437 68.6729 60.2025 56.3363 68.3868 46.8122C68.5459 45.7043 64.946 44.9053 63.8024 44.1489C51.8094 34.7526 63.2256 15.3316 63.2654 3.00571C64.2399 -0.286166 66.9051 5.32814 67.4719 5.96734C72.2054 11.3686 79.7931 9.87711 82.9653 18.4957C86.3266 27.6362 81.4836 34.3265 79.8726 43.0196C82.5178 42.7107 83.6415 34.5822 85.1332 33.5914C101.76 27.0503 121.142 32.313 132.797 46.3541C133.404 47.8669 129.973 45.8428 128.759 46.0771C124.702 46.8548 130.172 50.4983 130.331 50.7859C130.45 55.1005 124.135 61.876 122.504 65.4982C121.301 69.6636 128.302 74.5961 131.842 74.724L130.172 77.2595C133.791 74.8411 137.033 72.3696 141.379 71.6451C139.808 82.4796 161.427 97.863 169.989 94.1343C173.838 101.187 168.189 104.159 165.793 109.305C164.808 111.414 164.927 114.386 162.978 115.494C160.81 116.719 153.601 114.088 150.627 113.63C134.259 111.68 112.371 111.947 104.684 92.8453C104.346 91.5882 106.504 92.2061 107.25 91.6414L107.528 90.0648C105.659 90.3737 100.696 89.9902 99.9007 87.753C99.5427 86.7409 102.586 86.3681 101.8 84.4398C99.2941 84.7594 98.0013 87.6891 95.1274 86.9966C95.1672 89.6706 97.3947 87.9021 98.1903 88.0939C98.6676 88.2111 99.1051 89.4788 99.7317 89.9795C100.497 90.6081 102.327 91.3432 102.645 91.7054C109.378 116.9 139.39 113.918 158.076 117.902C148.012 128.044 133.523 129.589 121.838 121.737C124.334 125.306 128.849 127.351 132.807 128.385C120.376 132.486 119.591 131.645 108.592 125.966C76.571 122.984 53.3309 102.401 66.1592 65.903C67.8995 62.0039 70.8132 50.6048 74.6219 49.4116C70.1072 42.9238 76.0539 36.3826 76.8793 29.8734C77.834 22.2137 74.2938 10.8466 66.5172 9.31248C66.5272 11.3473 70.3458 12.2848 70.3359 14.1598C65.7813 22.3096 55.5783 39.9834 70.7635 43.0942C70.4254 48.9642 74.4032 47.7604 69.779 53.4386C55.8866 76.3006 57.7562 113.268 85.6006 122.259L89.4093 123.783C69.2917 120.395 50.5067 98.4809 53.6392 75.7467C50.5564 76.0876 53.9176 91.8119 54.5839 94.6563C54.2955 93.6123 45.9621 82.3624 47.0361 81.2438V81.2331ZM63.6532 48.6552V47.6432H64.5979V48.6552H63.6532ZM71.738 40.4522C57.8158 40.2817 67.6807 21.7556 71.5193 14.9268C77.5158 22.7677 74.4728 32.0893 71.738 40.4522ZM147.117 170.284L146.64 169.773C142.125 172.607 140.066 175.089 139.48 181.012C131.643 171.073 142.483 154.411 146.162 144.216L145.685 143.193C143.507 147.028 140.981 151.087 139.957 155.455C138.505 154.869 140.474 149.883 140.434 148.307H139.48C137.918 158.172 130.788 177.401 139.48 183.931C138.346 195.543 148.728 214.751 144.233 222.656C108.91 239.915 65.6521 234.119 32.6464 219.077C65.0753 239.584 110.024 240.905 144.482 224.457C150.239 239.776 78.1821 241.374 69.1326 238.231C43.6351 236.761 19.2314 224.062 25.0191 192.241C35.1823 195.767 44.8781 190.728 54.395 187.692C66.6167 188.768 77.0583 188.949 83.0051 174.94L112.769 180.235C105.738 183.537 98.4687 184.943 90.8314 185.604C90.6922 185.796 91.4579 186.616 91.5474 186.616C101.333 187.681 109.05 183.963 117.343 179.979C120.267 179.606 126.263 182.546 127.795 178.445C129.137 174.833 129.694 163.892 130.351 159.205C130.669 152.12 135.084 142.074 132.3 135.789C118.019 132.582 99.6422 130.888 84.8647 128.864C83.1244 128.694 75.7556 127.682 75.0993 129.248C73.9656 131.858 75.2186 134.564 75.1291 136.78C74.9601 141.009 73.707 145.473 74.1347 149.809C59.7948 144.312 62.6687 153.665 54.8226 152.866C51.9884 152.589 49.4426 151.14 47.5034 148.956C47.6327 141.669 47.0559 134.052 47.4239 126.808H46.9466C46.3101 133.775 46.1709 140.796 45.5146 147.763C41.5666 141.84 41.2484 133.381 37.1712 127.319L41.6959 143.928C39.5877 143.417 35.3215 140.604 33.3624 140.604C28.5394 140.412 24.3229 140.402 19.7684 143.161L21.2004 143.672C27.9825 141.51 34.6353 142.575 40.7512 146.229C19.6093 150.799 9.26705 173.299 26.9284 190.675C-13.7543 177.774 16.0492 117.241 36.9325 97.4049C37.9369 96.3822 42.4914 92.7814 42.8992 92.0463C43.7345 90.5335 42.6605 85.3666 45.2858 83.8752C55.4292 100.356 65.0753 118.68 84.1587 124.241C84.5266 124.347 84.9343 124.251 85.1133 124.752C85.6006 124.603 87.0525 124.986 87.0227 125.263C87.7486 125.125 89.6082 125.658 89.8867 125.775C92.6114 126.041 96.0224 125.104 98.4687 126.286C99.0654 126.243 100.796 126.243 100.855 126.797C101.75 127 103.162 126.297 103.719 127.309C104.833 127.458 106.146 126.893 107.061 127.82C119.034 135.459 124.623 134.351 136.974 128.949C141.2 128.023 144.024 128.278 148.549 126.531C149.703 126.084 151.771 124.241 152.855 124.976C154.366 126.009 156.912 135.618 159.05 137.27L155.709 138.282C153.77 141.478 157.917 141.403 159.309 142.618C161.497 145.26 162.183 151.258 164.669 153.729C165.256 155.934 164.48 159.535 165.723 162.049C163.505 160.004 161.596 158.864 158.553 159.738C156.554 160.739 150.259 164.872 150.936 167.674C151.194 167.546 151.841 167.174 151.89 167.163C151.85 166.002 152.547 165.799 153.173 165.213C157.588 161.048 161.686 157.66 165.723 164.595C161.208 166.343 157.897 168.431 152.845 167.163C157.022 171.158 162.063 166.982 166.19 165.885C165.315 166.641 164.748 169.592 164.162 170.103C163.674 170.529 158.404 171.552 156.634 172.511C154.933 173.427 152.258 175.739 151.204 177.422C149.394 181.3 145.884 191.218 146.64 195.788C138.097 190.59 139.321 175.632 147.117 170.242V170.284ZM35.0431 168.75L38.4341 157.319L43.9036 149.372C48.4084 151.929 51.7696 155.924 57.4479 154.965C56.891 157.277 54.5441 161.154 56.2546 163.125C59.397 156.254 60.2423 148.562 69.3912 150.086C74.0352 150.853 83.9697 156.041 79.4351 162.316L76.044 162.625C75.7954 162.39 78.3511 156.723 76.044 155.988C76.7799 160.952 70.2663 164.265 74.7313 168.942L76.5114 168.761L75.0893 163.658C84.0791 164.585 82.0405 174.812 77.4561 180.245C69.2818 189.94 60.8489 183.846 51.342 186.509C44.8284 188.331 38.8916 192.763 31.4531 191.239C11.9222 179.425 19.4104 151.023 41.2186 148.839C37.6187 154.102 33.8497 161.581 35.0232 168.761L35.0431 168.75ZM76.0539 138.09L102.616 164.073C111.993 161.197 120.794 156.563 129.456 151.886L126.174 178.253L125.309 178.882C111.148 178.253 97.0964 176.303 83.2239 173.331C83.7907 169.911 82.13 165.394 80.4792 163.392C84.8548 156.968 80.4096 153.58 75.0893 150.576L76.0539 138.101V138.09ZM76.1037 129.972C94.8887 131.698 113.684 134.553 132.33 137.579L130.311 149.212C121.341 153.196 112.858 158.8 103.501 161.613C97.9118 155.018 72.8121 138.516 76.1037 129.972ZM149.225 186.605C151.294 178.541 155.848 173.321 163.804 171.818C163.436 172.617 163.505 174.887 163.247 175.302C162.63 176.303 154.943 177.465 154.277 182.845C154.734 186.2 154.287 186.264 152.954 189.578C152.099 193.391 151.88 200.582 155.689 202.489C152.179 205.813 153.422 210.437 158.066 211.172C148.519 213.303 145.645 193.764 149.215 186.605H149.225ZM160.711 220.366C159.001 219.993 160.771 212.887 160.93 211.513L162.372 211.172C161.308 212.653 162.859 220.834 160.711 220.366ZM170.815 207.177C157.668 213.164 145.695 204.78 165.474 201.445C166.31 201.318 166.27 201.701 166.19 200.433C163.366 199.506 159.707 201.648 157.36 201.499C152.517 201.2 153.601 187.724 155.58 186.637C158.215 184.602 166.906 185.263 168.1 181.534C167.414 180.895 158.334 184.496 156.415 184.602C155.192 184.677 155.619 183.367 155.918 182.525C157.041 179.276 162.322 177.188 165.126 176.037C165.723 175.792 172.237 173.981 171.441 173.353L166.668 173.853C167.742 172.66 167.772 168.356 169.522 168.75L170.486 170.785C169.611 171.062 168.229 170.924 168.587 172.319C184.11 171.051 180.103 201.69 170.825 207.166L170.815 207.177ZM184.309 169.251C179.755 171.051 170.805 174.066 169.989 166.47C174.295 160.132 182.39 161.293 184.309 169.251ZM169.283 165.16C167.384 168.164 167.423 174.247 164.291 174.876C164.788 167.866 170.457 162.987 170.974 155.966L174.305 156.989C172.505 159.588 170.695 162.273 169.293 165.149L169.283 165.16ZM194.124 147.795C195.686 156.147 181.624 150.512 177.159 154.432C176.195 146.25 192.086 138.729 194.124 147.795ZM189.48 142.607C175.17 142.053 178.104 156.339 172.843 155.263C168.746 154.358 167.642 148.903 168.139 145.036C169.243 136.364 179.735 137.419 185.512 134.521C188.923 132.806 189.699 129.631 194.045 131.506C200.807 134.425 189.44 138.143 189.49 142.618L189.48 142.607Z" fill="black"/>
<path d="M84.159 124.294C84.4374 125.115 85.4716 124.688 86.0683 124.806C87.0429 125.498 88.7831 125.349 89.887 125.828C92.6515 126.009 95.4758 126.67 98.469 126.34C99.8811 126.116 100.876 127.075 102.288 126.851C102.835 127.852 104.247 127.171 105.152 127.362C105.49 128.193 106.484 127.767 107.061 127.874C110.313 128.492 112.511 131.56 115.166 132.476V132.987C105.301 131.602 94.71 129.877 84.875 128.897C83.1347 128.726 75.7659 127.714 75.1096 129.28C73.9759 131.89 75.2289 134.596 75.1394 136.812C74.9703 141.041 73.7173 145.505 74.1449 149.841C59.7553 144.355 62.7088 153.697 54.8328 152.898C51.9986 152.621 49.4529 151.173 47.5137 148.989C47.4938 139.965 47.0165 131.166 47.9115 122.238C46.3502 122.984 47.0961 125.381 46.9668 126.84C46.3303 133.808 46.1911 140.828 45.5348 147.796C41.5868 141.872 41.2686 133.414 37.1914 127.362L41.7161 143.971C35.0832 140.882 33.5318 140.21 26.2227 140.647C24.5321 141.222 17.034 143.321 16.9246 145.761C24.2338 141.435 33.4821 141.638 40.7614 146.283C19.6096 150.842 9.27733 173.385 26.9387 190.728C-13.7341 177.817 16.0594 117.316 36.9428 97.4692C37.9472 96.4465 42.5017 92.835 42.9094 92.1106C43.7448 90.5978 42.6708 85.4309 45.2961 83.9395C55.4394 100.42 65.0855 118.744 84.1689 124.305L84.159 124.294Z" fill="#8C7CD6"/>
<path d="M103.48 21.5742C103.789 21.7447 103.789 21.9151 103.48 22.0856V21.5742Z" fill="#121111"/>
<path d="M65.562 319.505C55.4485 320.336 44.2212 321.625 34.5254 318.674C34.9928 312.804 38.6225 308.394 44.3604 308.756C47.4034 309.608 64.6272 315.894 65.562 319.516V319.505Z" fill="#ADAEAE"/>
<path d="M101.204 55.9313C109.796 54.5996 107.479 66.265 105.858 71.6449C105.421 73.1044 105.172 75.4588 103.452 75.7465C101.095 76.1406 91.2895 71.3999 90.842 68.8218C89.957 63.6762 96.58 56.6557 101.204 55.9313ZM97.0374 72.1669C98.8772 72.8061 103.263 76.3217 104.187 73.1897C101.88 73.6584 99.6031 72.1776 97.5148 71.6556C95.0883 66.4248 98.2507 58.2004 104.187 58.1152C100.041 55.601 95.6353 59.9369 93.6165 63.6443C90.3945 69.5569 91.9359 69.429 97.0374 72.1669ZM106.097 61.4284C103.273 57.5399 99.9909 60.0435 98.5788 63.8467C96.1126 70.4731 98.012 71.7089 104.187 72.1563L104.436 70.6435C97.9324 72.1243 99.3048 57.7636 106.097 61.4284ZM105.619 65.0079C103.75 65.0079 103.72 67.032 105.619 67.0427V65.0079Z" fill="#110D0F"/>
<path d="M109.437 47.1212C101.779 46.3967 94.6891 49.8165 87.9766 53.2468C88.5136 44.1489 110.391 36.9259 109.437 47.1212Z" fill="#0D0C0D"/>
<path d="M141.866 93.112C141.12 93.9856 138.335 89.5112 137.838 88.9998C131.832 82.9274 123.438 83.4068 123.269 93.6233C120.913 91.0026 122.703 86.5389 125.219 84.7171C131.225 80.2854 140.036 86.7839 141.875 93.112H141.866Z" fill="#0D0C0D"/>
<path d="M128.989 90.5546L128.283 92.6C127.1 91.7584 127.388 89.8728 128.512 89.2869C132.41 87.2308 139.411 95.5617 136.378 99.7484C135.314 98.5872 135.712 96.9466 135.214 95.3912C134.399 92.877 131.535 90.3735 128.989 90.5546Z" fill="#121111"/>
<path d="M169.522 100.271C169.88 101.923 168.627 100.868 168.05 101.603C167.831 101.891 165.753 108.176 164.749 106.908C165.405 105.854 164.41 103.648 164.48 103.307C164.828 101.55 167.881 100.005 169.512 100.271H169.522Z" fill="#121111"/>
<path d="M111.824 210.149C104.445 218.81 57.6862 210.831 49.8301 204.013C70.1665 209.329 90.8012 215.284 111.824 210.149Z" fill="#110B12"/>
<path d="M46.967 300.597C46.9173 297.731 58.96 298.722 62.1223 296.655C63.962 296.431 74.2943 289.4 72.9618 292.947C66.5575 298.221 55.0618 301.427 46.957 300.607L46.967 300.597Z" fill="#0D0C0D"/>
<path d="M135.671 294.981V296.505C132.747 298.998 114.429 294.79 114.22 291.658C114.141 290.464 115.424 291.349 115.792 291.487C122.047 294.886 128.709 295.589 135.671 294.981Z" fill="#0D0C0D"/>
<path d="M106.583 145.249C109.288 143.086 112.411 145.558 111.734 148.956C110.839 150.842 105.827 157.522 103.53 157.479C102.148 157.042 99.8905 149.223 99.9004 147.54C99.9104 141.989 104.773 139.518 106.583 145.238V145.249ZM105.628 147.795C105.718 146.613 105.579 144.216 104.356 143.779C99.443 142.053 101.601 153.442 104.007 155.423C106.384 154.187 111.187 150.256 110.302 147.135C109.328 143.704 106.155 148.466 105.628 147.785V147.795Z" fill="#221212"/>
<path d="M97.0364 72.167C91.9349 69.4291 90.4034 69.5676 93.6155 63.6443C95.6342 59.937 100.04 55.6011 104.186 58.1152C98.2496 58.2005 95.0873 66.4142 97.5137 71.6556C97.4541 71.6556 97.2154 72.0711 97.0364 72.167Z" fill="#F1F4F4"/>
<path d="M101.333 73.1898C100.925 73.2217 100.508 73.2004 100.378 73.7011C98.8271 73.1791 98.3995 72.9021 97.0371 72.167C97.9321 70.8993 100.15 72.8169 101.333 73.1898Z" fill="#A6A6A6"/>
<path d="M101.334 73.19C102.278 73.1155 103.253 73.2433 104.198 73.19C103.153 75.6083 102 74.234 100.379 73.6907C100.508 73.19 100.926 73.2113 101.334 73.1794V73.19Z" fill="#F1F4F4"/>
<path d="M105.618 65.0078V67.0426C103.719 67.0319 103.749 65.0078 105.618 65.0078Z" fill="#F1F4F4"/>
<path d="M106.096 61.429C99.3041 57.7642 97.9318 72.1356 104.435 70.6441L104.187 72.1569C98.0113 71.7094 96.112 70.4736 98.5782 63.8473C99.9903 60.044 103.272 57.5405 106.096 61.429Z" fill="#4E4236"/>
<path d="M105.628 147.795C106.155 148.466 109.328 143.715 110.302 147.145C111.187 150.267 106.384 154.198 104.007 155.434C101.601 153.452 99.4528 142.064 104.355 143.79C105.579 144.216 105.718 146.623 105.628 147.806V147.795Z" fill="#F61E1E"/>
</svg>
